%TF.GenerationSoftware,KiCad,Pcbnew,(6.0.5)*%
%TF.CreationDate,2022-10-10T14:26:01+02:00*%
%TF.ProjectId,termostato_kicad6,7465726d-6f73-4746-9174-6f5f6b696361,rev?*%
%TF.SameCoordinates,Original*%
%TF.FileFunction,Soldermask,Bot*%
%TF.FilePolarity,Negative*%
%FSLAX46Y46*%
G04 Gerber Fmt 4.6, Leading zero omitted, Abs format (unit mm)*
G04 Created by KiCad (PCBNEW (6.0.5)) date 2022-10-10 14:26:01*
%MOMM*%
%LPD*%
G01*
G04 APERTURE LIST*
G04 Aperture macros list*
%AMRoundRect*
0 Rectangle with rounded corners*
0 $1 Rounding radius*
0 $2 $3 $4 $5 $6 $7 $8 $9 X,Y pos of 4 corners*
0 Add a 4 corners polygon primitive as box body*
4,1,4,$2,$3,$4,$5,$6,$7,$8,$9,$2,$3,0*
0 Add four circle primitives for the rounded corners*
1,1,$1+$1,$2,$3*
1,1,$1+$1,$4,$5*
1,1,$1+$1,$6,$7*
1,1,$1+$1,$8,$9*
0 Add four rect primitives between the rounded corners*
20,1,$1+$1,$2,$3,$4,$5,0*
20,1,$1+$1,$4,$5,$6,$7,0*
20,1,$1+$1,$6,$7,$8,$9,0*
20,1,$1+$1,$8,$9,$2,$3,0*%
G04 Aperture macros list end*
%ADD10RoundRect,0.249999X1.550001X-0.790001X1.550001X0.790001X-1.550001X0.790001X-1.550001X-0.790001X0*%
%ADD11O,3.600000X2.080000*%
%ADD12C,4.300000*%
%ADD13RoundRect,0.249999X-1.550001X0.790001X-1.550001X-0.790001X1.550001X-0.790001X1.550001X0.790001X0*%
%ADD14R,1.600000X2.400000*%
%ADD15O,1.600000X2.400000*%
%ADD16C,1.600000*%
%ADD17O,1.600000X1.600000*%
%ADD18C,3.000000*%
%ADD19C,2.500000*%
%ADD20R,1.800000X1.800000*%
%ADD21O,1.800000X1.800000*%
%ADD22R,3.000000X3.000000*%
%ADD23C,1.400000*%
%ADD24C,2.000000*%
%ADD25R,1.500000X1.500000*%
%ADD26C,1.500000*%
G04 APERTURE END LIST*
D10*
%TO.C,X2*%
X174022500Y-93980000D03*
D11*
X174022500Y-88900000D03*
X174022500Y-83820000D03*
%TD*%
D12*
%TO.C,H1*%
X120000000Y-65000000D03*
%TD*%
D13*
%TO.C,X1*%
X115537500Y-86360000D03*
D11*
X115537500Y-91440000D03*
%TD*%
D14*
%TO.C,U1*%
X128280000Y-92725000D03*
D15*
X130820000Y-92725000D03*
X133360000Y-92725000D03*
X135900000Y-92725000D03*
X135900000Y-85105000D03*
X133360000Y-85105000D03*
X130820000Y-85105000D03*
X128280000Y-85105000D03*
%TD*%
D12*
%TO.C,H2*%
X170000000Y-65000000D03*
%TD*%
D16*
%TO.C,R3*%
X137160000Y-73660000D03*
D17*
X127000000Y-73660000D03*
%TD*%
D16*
%TO.C,R5*%
X127000000Y-104140000D03*
D17*
X137160000Y-104140000D03*
%TD*%
D18*
%TO.C,K1*%
X150495000Y-88900000D03*
D19*
X152445000Y-94950000D03*
D18*
X164645000Y-94950000D03*
X164695000Y-82900000D03*
D19*
X152445000Y-82950000D03*
%TD*%
D20*
%TO.C,D1*%
X146685000Y-83820000D03*
D21*
X146685000Y-93980000D03*
%TD*%
D12*
%TO.C,H3*%
X120000000Y-115000000D03*
%TD*%
D22*
%TO.C,R4*%
X149780000Y-60960000D03*
D18*
X144780000Y-60960000D03*
X139780000Y-60960000D03*
%TD*%
D23*
%TO.C,TH1*%
X144780000Y-116840000D03*
X147280000Y-116840000D03*
%TD*%
D12*
%TO.C,H4*%
X170000000Y-115000000D03*
%TD*%
D16*
%TO.C,R2*%
X127000000Y-78740000D03*
D17*
X137160000Y-78740000D03*
%TD*%
D16*
%TO.C,R1*%
X127000000Y-99060000D03*
D17*
X137160000Y-99060000D03*
%TD*%
D24*
%TO.C,C1*%
X139700000Y-86360000D03*
X139700000Y-91360000D03*
%TD*%
D25*
%TO.C,Q1*%
X147320000Y-104902000D03*
D26*
X147320000Y-102362000D03*
X147320000Y-99822000D03*
%TD*%
M02*
