%TF.GenerationSoftware,KiCad,Pcbnew,(6.0.5)*%
%TF.CreationDate,2022-10-10T14:26:01+02:00*%
%TF.ProjectId,termostato_kicad6,7465726d-6f73-4746-9174-6f5f6b696361,rev?*%
%TF.SameCoordinates,Original*%
%TF.FileFunction,Copper,L1,Top*%
%TF.FilePolarity,Positive*%
%FSLAX46Y46*%
G04 Gerber Fmt 4.6, Leading zero omitted, Abs format (unit mm)*
G04 Created by KiCad (PCBNEW (6.0.5)) date 2022-10-10 14:26:01*
%MOMM*%
%LPD*%
G01*
G04 APERTURE LIST*
G04 Aperture macros list*
%AMRoundRect*
0 Rectangle with rounded corners*
0 $1 Rounding radius*
0 $2 $3 $4 $5 $6 $7 $8 $9 X,Y pos of 4 corners*
0 Add a 4 corners polygon primitive as box body*
4,1,4,$2,$3,$4,$5,$6,$7,$8,$9,$2,$3,0*
0 Add four circle primitives for the rounded corners*
1,1,$1+$1,$2,$3*
1,1,$1+$1,$4,$5*
1,1,$1+$1,$6,$7*
1,1,$1+$1,$8,$9*
0 Add four rect primitives between the rounded corners*
20,1,$1+$1,$2,$3,$4,$5,0*
20,1,$1+$1,$4,$5,$6,$7,0*
20,1,$1+$1,$6,$7,$8,$9,0*
20,1,$1+$1,$8,$9,$2,$3,0*%
G04 Aperture macros list end*
%TA.AperFunction,ComponentPad*%
%ADD10RoundRect,0.249999X1.550001X-0.790001X1.550001X0.790001X-1.550001X0.790001X-1.550001X-0.790001X0*%
%TD*%
%TA.AperFunction,ComponentPad*%
%ADD11O,3.600000X2.080000*%
%TD*%
%TA.AperFunction,ComponentPad*%
%ADD12RoundRect,0.249999X-1.550001X0.790001X-1.550001X-0.790001X1.550001X-0.790001X1.550001X0.790001X0*%
%TD*%
%TA.AperFunction,ComponentPad*%
%ADD13R,1.600000X2.400000*%
%TD*%
%TA.AperFunction,ComponentPad*%
%ADD14O,1.600000X2.400000*%
%TD*%
%TA.AperFunction,ComponentPad*%
%ADD15C,1.600000*%
%TD*%
%TA.AperFunction,ComponentPad*%
%ADD16O,1.600000X1.600000*%
%TD*%
%TA.AperFunction,ComponentPad*%
%ADD17C,3.000000*%
%TD*%
%TA.AperFunction,ComponentPad*%
%ADD18C,2.500000*%
%TD*%
%TA.AperFunction,ComponentPad*%
%ADD19R,1.800000X1.800000*%
%TD*%
%TA.AperFunction,ComponentPad*%
%ADD20O,1.800000X1.800000*%
%TD*%
%TA.AperFunction,ComponentPad*%
%ADD21R,3.000000X3.000000*%
%TD*%
%TA.AperFunction,ComponentPad*%
%ADD22C,1.400000*%
%TD*%
%TA.AperFunction,ComponentPad*%
%ADD23C,2.000000*%
%TD*%
%TA.AperFunction,ComponentPad*%
%ADD24R,1.500000X1.500000*%
%TD*%
%TA.AperFunction,ComponentPad*%
%ADD25C,1.500000*%
%TD*%
%TA.AperFunction,Conductor*%
%ADD26C,0.406400*%
%TD*%
G04 APERTURE END LIST*
D10*
%TO.P,X2,1,Pin_1*%
%TO.N,Net-(K1-Pad4)*%
X174022500Y-93980000D03*
D11*
%TO.P,X2,2,Pin_2*%
%TO.N,Net-(K1-Pad3)*%
X174022500Y-88900000D03*
%TO.P,X2,3,Pin_3*%
%TO.N,Net-(K1-Pad1)*%
X174022500Y-83820000D03*
%TD*%
D12*
%TO.P,X1,1,Pin_1*%
%TO.N,+5V*%
X115537500Y-86360000D03*
D11*
%TO.P,X1,2,Pin_2*%
%TO.N,GND*%
X115537500Y-91440000D03*
%TD*%
D13*
%TO.P,U1,1*%
%TO.N,Vout*%
X128280000Y-92725000D03*
D14*
%TO.P,U1,2,-*%
%TO.N,Net-(R1-Pad1)*%
X130820000Y-92725000D03*
%TO.P,U1,3,+*%
%TO.N,Net-(R2-Pad2)*%
X133360000Y-92725000D03*
%TO.P,U1,4,V-*%
%TO.N,GND*%
X135900000Y-92725000D03*
%TO.P,U1,5,+*%
%TO.N,Net-(R4-Pad2)*%
X135900000Y-85105000D03*
%TO.P,U1,6,-*%
%TO.N,Vref*%
X133360000Y-85105000D03*
%TO.P,U1,7*%
X130820000Y-85105000D03*
%TO.P,U1,8,V+*%
%TO.N,+5V*%
X128280000Y-85105000D03*
%TD*%
D15*
%TO.P,R3,1*%
%TO.N,Net-(R2-Pad2)*%
X137160000Y-73660000D03*
D16*
%TO.P,R3,2*%
%TO.N,Vout*%
X127000000Y-73660000D03*
%TD*%
D15*
%TO.P,R5,1*%
%TO.N,Vout*%
X127000000Y-104140000D03*
D16*
%TO.P,R5,2*%
%TO.N,Net-(Q1-Pad2)*%
X137160000Y-104140000D03*
%TD*%
D17*
%TO.P,K1,1*%
%TO.N,Net-(K1-Pad1)*%
X150495000Y-88900000D03*
D18*
%TO.P,K1,2*%
%TO.N,Net-(D1-Pad2)*%
X152445000Y-94950000D03*
D17*
%TO.P,K1,3*%
%TO.N,Net-(K1-Pad3)*%
X164645000Y-94950000D03*
%TO.P,K1,4*%
%TO.N,Net-(K1-Pad4)*%
X164695000Y-82900000D03*
D18*
%TO.P,K1,5*%
%TO.N,+5V*%
X152445000Y-82950000D03*
%TD*%
D19*
%TO.P,D1,1,K*%
%TO.N,+5V*%
X146685000Y-83820000D03*
D20*
%TO.P,D1,2,A*%
%TO.N,Net-(D1-Pad2)*%
X146685000Y-93980000D03*
%TD*%
D21*
%TO.P,R4,1,1*%
%TO.N,+5V*%
X149780000Y-60960000D03*
D17*
%TO.P,R4,2,2*%
%TO.N,Net-(R4-Pad2)*%
X144780000Y-60960000D03*
%TO.P,R4,3,3*%
%TO.N,GND*%
X139780000Y-60960000D03*
%TD*%
D22*
%TO.P,TH1,1*%
%TO.N,+5V*%
X144780000Y-116840000D03*
%TO.P,TH1,2*%
%TO.N,Net-(R1-Pad1)*%
X147280000Y-116840000D03*
%TD*%
D15*
%TO.P,R2,1*%
%TO.N,Vref*%
X127000000Y-78740000D03*
D16*
%TO.P,R2,2*%
%TO.N,Net-(R2-Pad2)*%
X137160000Y-78740000D03*
%TD*%
D15*
%TO.P,R1,1*%
%TO.N,Net-(R1-Pad1)*%
X127000000Y-99060000D03*
D16*
%TO.P,R1,2*%
%TO.N,GND*%
X137160000Y-99060000D03*
%TD*%
D23*
%TO.P,C1,1*%
%TO.N,+5V*%
X139700000Y-86360000D03*
%TO.P,C1,2*%
%TO.N,GND*%
X139700000Y-91360000D03*
%TD*%
D24*
%TO.P,Q1,1,C*%
%TO.N,Net-(D1-Pad2)*%
X147320000Y-104902000D03*
D25*
%TO.P,Q1,2,B*%
%TO.N,Net-(Q1-Pad2)*%
X147320000Y-102362000D03*
%TO.P,Q1,3,E*%
%TO.N,GND*%
X147320000Y-99822000D03*
%TD*%
D26*
%TO.N,+5V*%
X138176000Y-87884000D02*
X129159000Y-87884000D01*
X129159000Y-87884000D02*
X128280000Y-87005000D01*
X128280000Y-87005000D02*
X128280000Y-85105000D01*
X115537500Y-86360000D02*
X116045500Y-86868000D01*
X139700000Y-86360000D02*
X138176000Y-87884000D01*
X128280000Y-86868000D02*
X128280000Y-85105000D01*
X116045500Y-86868000D02*
X128280000Y-86868000D01*
%TD*%
%TA.AperFunction,Conductor*%
%TO.N,GND*%
G36*
X169970018Y-55510000D02*
G01*
X169984851Y-55512310D01*
X169984855Y-55512310D01*
X169993724Y-55513691D01*
X170002626Y-55512527D01*
X170002628Y-55512527D01*
X170011681Y-55511343D01*
X170016837Y-55510669D01*
X170037129Y-55509667D01*
X170592018Y-55527105D01*
X170599918Y-55527602D01*
X170935516Y-55559325D01*
X171185666Y-55582971D01*
X171193501Y-55583961D01*
X171774624Y-55676002D01*
X171782392Y-55677485D01*
X172356582Y-55805832D01*
X172364249Y-55807800D01*
X172634892Y-55886429D01*
X172929245Y-55971946D01*
X172936748Y-55974384D01*
X173490344Y-56173690D01*
X173497672Y-56176592D01*
X174037663Y-56410267D01*
X174044795Y-56413623D01*
X174483568Y-56637189D01*
X174569036Y-56680737D01*
X174575972Y-56684550D01*
X175082394Y-56984047D01*
X175089077Y-56988289D01*
X175575698Y-57318996D01*
X175582102Y-57323649D01*
X176046976Y-57684243D01*
X176053075Y-57689288D01*
X176494414Y-58078380D01*
X176500184Y-58083799D01*
X176916201Y-58499816D01*
X176921620Y-58505586D01*
X177310712Y-58946925D01*
X177315757Y-58953024D01*
X177649879Y-59383770D01*
X177676351Y-59417898D01*
X177681004Y-59424302D01*
X178011711Y-59910923D01*
X178015953Y-59917606D01*
X178315450Y-60424028D01*
X178319263Y-60430964D01*
X178586377Y-60955205D01*
X178589733Y-60962337D01*
X178823408Y-61502328D01*
X178826310Y-61509656D01*
X179025612Y-62063239D01*
X179028054Y-62070755D01*
X179110945Y-62356067D01*
X179192200Y-62635751D01*
X179194168Y-62643418D01*
X179322515Y-63217608D01*
X179323998Y-63225376D01*
X179413549Y-63790773D01*
X179416038Y-63806490D01*
X179417030Y-63814343D01*
X179472398Y-64400082D01*
X179472895Y-64407982D01*
X179490095Y-64955300D01*
X179488657Y-64978642D01*
X179487690Y-64984850D01*
X179487690Y-64984855D01*
X179486309Y-64993724D01*
X179487473Y-65002626D01*
X179487473Y-65002628D01*
X179490436Y-65025283D01*
X179491500Y-65041621D01*
X179491500Y-114950633D01*
X179490000Y-114970018D01*
X179487690Y-114984851D01*
X179487690Y-114984855D01*
X179486309Y-114993724D01*
X179487473Y-115002626D01*
X179487473Y-115002628D01*
X179489331Y-115016834D01*
X179490333Y-115037129D01*
X179472895Y-115592018D01*
X179472398Y-115599918D01*
X179417030Y-116185657D01*
X179416039Y-116193501D01*
X179357105Y-116565597D01*
X179323999Y-116774617D01*
X179322515Y-116782392D01*
X179194168Y-117356582D01*
X179192200Y-117364249D01*
X179147404Y-117518438D01*
X179040202Y-117887434D01*
X179028058Y-117929233D01*
X179025616Y-117936748D01*
X178826310Y-118490344D01*
X178823408Y-118497672D01*
X178589733Y-119037663D01*
X178586377Y-119044795D01*
X178362811Y-119483568D01*
X178319263Y-119569036D01*
X178315450Y-119575972D01*
X178015953Y-120082394D01*
X178011711Y-120089077D01*
X177681004Y-120575698D01*
X177676351Y-120582102D01*
X177315757Y-121046976D01*
X177310712Y-121053075D01*
X176921620Y-121494414D01*
X176916201Y-121500184D01*
X176500184Y-121916201D01*
X176494414Y-121921620D01*
X176053075Y-122310712D01*
X176046976Y-122315757D01*
X175582102Y-122676351D01*
X175575698Y-122681004D01*
X175089077Y-123011711D01*
X175082394Y-123015953D01*
X174575972Y-123315450D01*
X174569036Y-123319263D01*
X174044795Y-123586377D01*
X174037663Y-123589733D01*
X173497672Y-123823408D01*
X173490344Y-123826310D01*
X172936748Y-124025616D01*
X172929245Y-124028054D01*
X172634892Y-124113571D01*
X172364249Y-124192200D01*
X172356582Y-124194168D01*
X171782392Y-124322515D01*
X171774624Y-124323998D01*
X171193501Y-124416039D01*
X171185666Y-124417029D01*
X170935516Y-124440675D01*
X170599918Y-124472398D01*
X170592018Y-124472895D01*
X170044700Y-124490095D01*
X170021358Y-124488657D01*
X170015150Y-124487690D01*
X170015145Y-124487690D01*
X170006276Y-124486309D01*
X169997374Y-124487473D01*
X169997372Y-124487473D01*
X169983166Y-124489331D01*
X169974714Y-124490436D01*
X169958379Y-124491500D01*
X120049367Y-124491500D01*
X120029982Y-124490000D01*
X120015149Y-124487690D01*
X120015145Y-124487690D01*
X120006276Y-124486309D01*
X119997374Y-124487473D01*
X119997372Y-124487473D01*
X119989576Y-124488493D01*
X119983163Y-124489331D01*
X119962871Y-124490333D01*
X119407982Y-124472895D01*
X119400082Y-124472398D01*
X119064484Y-124440675D01*
X118814334Y-124417029D01*
X118806499Y-124416039D01*
X118225376Y-124323998D01*
X118217608Y-124322515D01*
X117643418Y-124194168D01*
X117635751Y-124192200D01*
X117365108Y-124113571D01*
X117070755Y-124028054D01*
X117063252Y-124025616D01*
X116509656Y-123826310D01*
X116502328Y-123823408D01*
X115962337Y-123589733D01*
X115955205Y-123586377D01*
X115430964Y-123319263D01*
X115424028Y-123315450D01*
X114917606Y-123015953D01*
X114910923Y-123011711D01*
X114424302Y-122681004D01*
X114417898Y-122676351D01*
X113953024Y-122315757D01*
X113946925Y-122310712D01*
X113505586Y-121921620D01*
X113499816Y-121916201D01*
X113083799Y-121500184D01*
X113078380Y-121494414D01*
X112689288Y-121053075D01*
X112684243Y-121046976D01*
X112323649Y-120582102D01*
X112318996Y-120575698D01*
X111988289Y-120089077D01*
X111984047Y-120082394D01*
X111684550Y-119575972D01*
X111680737Y-119569036D01*
X111637189Y-119483568D01*
X111413623Y-119044795D01*
X111410267Y-119037663D01*
X111176592Y-118497672D01*
X111173690Y-118490344D01*
X110974384Y-117936748D01*
X110971942Y-117929233D01*
X110959799Y-117887434D01*
X110852596Y-117518438D01*
X110807800Y-117364249D01*
X110805832Y-117356582D01*
X110677485Y-116782392D01*
X110676001Y-116774617D01*
X110642895Y-116565597D01*
X110583961Y-116193501D01*
X110582970Y-116185657D01*
X110527602Y-115599918D01*
X110527105Y-115592018D01*
X110510024Y-115048516D01*
X110510162Y-115046485D01*
X117336854Y-115046485D01*
X117337156Y-115050320D01*
X117355108Y-115278417D01*
X117362370Y-115370695D01*
X117427206Y-115689378D01*
X117530398Y-115997784D01*
X117670405Y-116291316D01*
X117845141Y-116565597D01*
X117847584Y-116568560D01*
X117847585Y-116568562D01*
X118020670Y-116778530D01*
X118052001Y-116816538D01*
X118287902Y-117040399D01*
X118549326Y-117233843D01*
X118602296Y-117263812D01*
X118829019Y-117392086D01*
X118829023Y-117392088D01*
X118832376Y-117393985D01*
X119132832Y-117518438D01*
X119236288Y-117547129D01*
X119442500Y-117604317D01*
X119442508Y-117604319D01*
X119446216Y-117605347D01*
X119767856Y-117653416D01*
X119771154Y-117653560D01*
X119882918Y-117658440D01*
X119882922Y-117658440D01*
X119884294Y-117658500D01*
X120082598Y-117658500D01*
X120324605Y-117643698D01*
X120328388Y-117642997D01*
X120328395Y-117642996D01*
X120528459Y-117605916D01*
X120644372Y-117584433D01*
X120853682Y-117518438D01*
X120950860Y-117487798D01*
X120950863Y-117487797D01*
X120954532Y-117486640D01*
X120958029Y-117485046D01*
X120958035Y-117485044D01*
X121246954Y-117353376D01*
X121246958Y-117353374D01*
X121250462Y-117351777D01*
X121480961Y-117210527D01*
X121524473Y-117183863D01*
X121524476Y-117183861D01*
X121527751Y-117181854D01*
X121530755Y-117179464D01*
X121530760Y-117179461D01*
X121686009Y-117055970D01*
X121782264Y-116979405D01*
X121784958Y-116976664D01*
X121784962Y-116976660D01*
X121919257Y-116840000D01*
X143566884Y-116840000D01*
X143585314Y-117050655D01*
X143586738Y-117055968D01*
X143586738Y-117055970D01*
X143628152Y-117210527D01*
X143640044Y-117254910D01*
X143642366Y-117259891D01*
X143642367Y-117259892D01*
X143691030Y-117364249D01*
X143729411Y-117446558D01*
X143850699Y-117619776D01*
X144000224Y-117769301D01*
X144173442Y-117890589D01*
X144178420Y-117892910D01*
X144178423Y-117892912D01*
X144272458Y-117936761D01*
X144365090Y-117979956D01*
X144370398Y-117981378D01*
X144370400Y-117981379D01*
X144564030Y-118033262D01*
X144564032Y-118033262D01*
X144569345Y-118034686D01*
X144780000Y-118053116D01*
X144990655Y-118034686D01*
X144995968Y-118033262D01*
X144995970Y-118033262D01*
X145189600Y-117981379D01*
X145189602Y-117981378D01*
X145194910Y-117979956D01*
X145287542Y-117936761D01*
X145381577Y-117892912D01*
X145381580Y-117892910D01*
X145386558Y-117890589D01*
X145559776Y-117769301D01*
X145709301Y-117619776D01*
X145830589Y-117446558D01*
X145868971Y-117364249D01*
X145915805Y-117263812D01*
X145962722Y-117210527D01*
X146031000Y-117191066D01*
X146098960Y-117211608D01*
X146144195Y-117263812D01*
X146191030Y-117364249D01*
X146229411Y-117446558D01*
X146350699Y-117619776D01*
X146500224Y-117769301D01*
X146673442Y-117890589D01*
X146678420Y-117892910D01*
X146678423Y-117892912D01*
X146772458Y-117936761D01*
X146865090Y-117979956D01*
X146870398Y-117981378D01*
X146870400Y-117981379D01*
X147064030Y-118033262D01*
X147064032Y-118033262D01*
X147069345Y-118034686D01*
X147280000Y-118053116D01*
X147490655Y-118034686D01*
X147495968Y-118033262D01*
X147495970Y-118033262D01*
X147689600Y-117981379D01*
X147689602Y-117981378D01*
X147694910Y-117979956D01*
X147787542Y-117936761D01*
X147881577Y-117892912D01*
X147881580Y-117892910D01*
X147886558Y-117890589D01*
X148059776Y-117769301D01*
X148209301Y-117619776D01*
X148330589Y-117446558D01*
X148368971Y-117364249D01*
X148417633Y-117259892D01*
X148417634Y-117259891D01*
X148419956Y-117254910D01*
X148431849Y-117210527D01*
X148473262Y-117055970D01*
X148473262Y-117055968D01*
X148474686Y-117050655D01*
X148493116Y-116840000D01*
X148474686Y-116629345D01*
X148437063Y-116488934D01*
X148421379Y-116430400D01*
X148421378Y-116430398D01*
X148419956Y-116425090D01*
X148355959Y-116287848D01*
X148332912Y-116238423D01*
X148332910Y-116238420D01*
X148330589Y-116233442D01*
X148209301Y-116060224D01*
X148059776Y-115910699D01*
X147886558Y-115789411D01*
X147881580Y-115787090D01*
X147881577Y-115787088D01*
X147699892Y-115702367D01*
X147699891Y-115702366D01*
X147694910Y-115700044D01*
X147689602Y-115698622D01*
X147689600Y-115698621D01*
X147495970Y-115646738D01*
X147495968Y-115646738D01*
X147490655Y-115645314D01*
X147280000Y-115626884D01*
X147069345Y-115645314D01*
X147064032Y-115646738D01*
X147064030Y-115646738D01*
X146870400Y-115698621D01*
X146870398Y-115698622D01*
X146865090Y-115700044D01*
X146860109Y-115702366D01*
X146860108Y-115702367D01*
X146678423Y-115787088D01*
X146678420Y-115787090D01*
X146673442Y-115789411D01*
X146500224Y-115910699D01*
X146350699Y-116060224D01*
X146229411Y-116233442D01*
X146227090Y-116238420D01*
X146227088Y-116238423D01*
X146144195Y-116416188D01*
X146097278Y-116469473D01*
X146029000Y-116488934D01*
X145961040Y-116468392D01*
X145915805Y-116416188D01*
X145832912Y-116238423D01*
X145832910Y-116238420D01*
X145830589Y-116233442D01*
X145709301Y-116060224D01*
X145559776Y-115910699D01*
X145386558Y-115789411D01*
X145381580Y-115787090D01*
X145381577Y-115787088D01*
X145199892Y-115702367D01*
X145199891Y-115702366D01*
X145194910Y-115700044D01*
X145189602Y-115698622D01*
X145189600Y-115698621D01*
X144995970Y-115646738D01*
X144995968Y-115646738D01*
X144990655Y-115645314D01*
X144780000Y-115626884D01*
X144569345Y-115645314D01*
X144564032Y-115646738D01*
X144564030Y-115646738D01*
X144370400Y-115698621D01*
X144370398Y-115698622D01*
X144365090Y-115700044D01*
X144360109Y-115702366D01*
X144360108Y-115702367D01*
X144178423Y-115787088D01*
X144178420Y-115787090D01*
X144173442Y-115789411D01*
X144000224Y-115910699D01*
X143850699Y-116060224D01*
X143729411Y-116233442D01*
X143727090Y-116238420D01*
X143727088Y-116238423D01*
X143704041Y-116287848D01*
X143640044Y-116425090D01*
X143638622Y-116430398D01*
X143638621Y-116430400D01*
X143622937Y-116488934D01*
X143585314Y-116629345D01*
X143566884Y-116840000D01*
X121919257Y-116840000D01*
X122007513Y-116750190D01*
X122007517Y-116750185D01*
X122010208Y-116747447D01*
X122208185Y-116489439D01*
X122356044Y-116238423D01*
X122371289Y-116212543D01*
X122371291Y-116212540D01*
X122373242Y-116209227D01*
X122502920Y-115910988D01*
X122595285Y-115599169D01*
X122648961Y-115278417D01*
X122659087Y-115046485D01*
X167336854Y-115046485D01*
X167337156Y-115050320D01*
X167355108Y-115278417D01*
X167362370Y-115370695D01*
X167427206Y-115689378D01*
X167530398Y-115997784D01*
X167670405Y-116291316D01*
X167845141Y-116565597D01*
X167847584Y-116568560D01*
X167847585Y-116568562D01*
X168020670Y-116778530D01*
X168052001Y-116816538D01*
X168287902Y-117040399D01*
X168549326Y-117233843D01*
X168602296Y-117263812D01*
X168829019Y-117392086D01*
X168829023Y-117392088D01*
X168832376Y-117393985D01*
X169132832Y-117518438D01*
X169236288Y-117547129D01*
X169442500Y-117604317D01*
X169442508Y-117604319D01*
X169446216Y-117605347D01*
X169767856Y-117653416D01*
X169771154Y-117653560D01*
X169882918Y-117658440D01*
X169882922Y-117658440D01*
X169884294Y-117658500D01*
X170082598Y-117658500D01*
X170324605Y-117643698D01*
X170328388Y-117642997D01*
X170328395Y-117642996D01*
X170528459Y-117605916D01*
X170644372Y-117584433D01*
X170853682Y-117518438D01*
X170950860Y-117487798D01*
X170950863Y-117487797D01*
X170954532Y-117486640D01*
X170958029Y-117485046D01*
X170958035Y-117485044D01*
X171246954Y-117353376D01*
X171246958Y-117353374D01*
X171250462Y-117351777D01*
X171480961Y-117210527D01*
X171524473Y-117183863D01*
X171524476Y-117183861D01*
X171527751Y-117181854D01*
X171530755Y-117179464D01*
X171530760Y-117179461D01*
X171686009Y-117055970D01*
X171782264Y-116979405D01*
X171784958Y-116976664D01*
X171784962Y-116976660D01*
X172007513Y-116750190D01*
X172007517Y-116750185D01*
X172010208Y-116747447D01*
X172208185Y-116489439D01*
X172356044Y-116238423D01*
X172371289Y-116212543D01*
X172371291Y-116212540D01*
X172373242Y-116209227D01*
X172502920Y-115910988D01*
X172595285Y-115599169D01*
X172648961Y-115278417D01*
X172663146Y-114953515D01*
X172650388Y-114791410D01*
X172637932Y-114633140D01*
X172637932Y-114633137D01*
X172637630Y-114629305D01*
X172572794Y-114310622D01*
X172469602Y-114002216D01*
X172329595Y-113708684D01*
X172154859Y-113434403D01*
X172007470Y-113255606D01*
X171950442Y-113186425D01*
X171950438Y-113186420D01*
X171947999Y-113183462D01*
X171712098Y-112959601D01*
X171450674Y-112766157D01*
X171245781Y-112650234D01*
X171170981Y-112607914D01*
X171170977Y-112607912D01*
X171167624Y-112606015D01*
X170867168Y-112481562D01*
X170763712Y-112452871D01*
X170557500Y-112395683D01*
X170557492Y-112395681D01*
X170553784Y-112394653D01*
X170232144Y-112346584D01*
X170228846Y-112346440D01*
X170117082Y-112341560D01*
X170117078Y-112341560D01*
X170115706Y-112341500D01*
X169917402Y-112341500D01*
X169675395Y-112356302D01*
X169671612Y-112357003D01*
X169671605Y-112357004D01*
X169515511Y-112385935D01*
X169355628Y-112415567D01*
X169171058Y-112473762D01*
X169049140Y-112512202D01*
X169049137Y-112512203D01*
X169045468Y-112513360D01*
X169041971Y-112514954D01*
X169041965Y-112514956D01*
X168753046Y-112646624D01*
X168753042Y-112646626D01*
X168749538Y-112648223D01*
X168472249Y-112818146D01*
X168469245Y-112820536D01*
X168469240Y-112820539D01*
X168344993Y-112919370D01*
X168217736Y-113020595D01*
X168215042Y-113023336D01*
X168215038Y-113023340D01*
X167992487Y-113249810D01*
X167992483Y-113249815D01*
X167989792Y-113252553D01*
X167791815Y-113510561D01*
X167626758Y-113790773D01*
X167497080Y-114089012D01*
X167404715Y-114400831D01*
X167351039Y-114721583D01*
X167336854Y-115046485D01*
X122659087Y-115046485D01*
X122663146Y-114953515D01*
X122650388Y-114791410D01*
X122637932Y-114633140D01*
X122637932Y-114633137D01*
X122637630Y-114629305D01*
X122572794Y-114310622D01*
X122469602Y-114002216D01*
X122329595Y-113708684D01*
X122154859Y-113434403D01*
X122007470Y-113255606D01*
X121950442Y-113186425D01*
X121950438Y-113186420D01*
X121947999Y-113183462D01*
X121712098Y-112959601D01*
X121450674Y-112766157D01*
X121245781Y-112650234D01*
X121170981Y-112607914D01*
X121170977Y-112607912D01*
X121167624Y-112606015D01*
X120867168Y-112481562D01*
X120763712Y-112452871D01*
X120557500Y-112395683D01*
X120557492Y-112395681D01*
X120553784Y-112394653D01*
X120232144Y-112346584D01*
X120228846Y-112346440D01*
X120117082Y-112341560D01*
X120117078Y-112341560D01*
X120115706Y-112341500D01*
X119917402Y-112341500D01*
X119675395Y-112356302D01*
X119671612Y-112357003D01*
X119671605Y-112357004D01*
X119515511Y-112385935D01*
X119355628Y-112415567D01*
X119171058Y-112473762D01*
X119049140Y-112512202D01*
X119049137Y-112512203D01*
X119045468Y-112513360D01*
X119041971Y-112514954D01*
X119041965Y-112514956D01*
X118753046Y-112646624D01*
X118753042Y-112646626D01*
X118749538Y-112648223D01*
X118472249Y-112818146D01*
X118469245Y-112820536D01*
X118469240Y-112820539D01*
X118344992Y-112919371D01*
X118217736Y-113020595D01*
X118215042Y-113023336D01*
X118215038Y-113023340D01*
X117992487Y-113249810D01*
X117992483Y-113249815D01*
X117989792Y-113252553D01*
X117791815Y-113510561D01*
X117626758Y-113790773D01*
X117497080Y-114089012D01*
X117404715Y-114400831D01*
X117351039Y-114721583D01*
X117336854Y-115046485D01*
X110510162Y-115046485D01*
X110511709Y-115023648D01*
X110512770Y-115017345D01*
X110512770Y-115017340D01*
X110513576Y-115012552D01*
X110513729Y-115000000D01*
X110509773Y-114972376D01*
X110508500Y-114954514D01*
X110508500Y-104140000D01*
X125686502Y-104140000D01*
X125706457Y-104368087D01*
X125765716Y-104589243D01*
X125768039Y-104594224D01*
X125768039Y-104594225D01*
X125860151Y-104791762D01*
X125860154Y-104791767D01*
X125862477Y-104796749D01*
X125993802Y-104984300D01*
X126155700Y-105146198D01*
X126160208Y-105149355D01*
X126160211Y-105149357D01*
X126238389Y-105204098D01*
X126343251Y-105277523D01*
X126348233Y-105279846D01*
X126348238Y-105279849D01*
X126545775Y-105371961D01*
X126550757Y-105374284D01*
X126556065Y-105375706D01*
X126556067Y-105375707D01*
X126766598Y-105432119D01*
X126766600Y-105432119D01*
X126771913Y-105433543D01*
X127000000Y-105453498D01*
X127228087Y-105433543D01*
X127233400Y-105432119D01*
X127233402Y-105432119D01*
X127443933Y-105375707D01*
X127443935Y-105375706D01*
X127449243Y-105374284D01*
X127454225Y-105371961D01*
X127651762Y-105279849D01*
X127651767Y-105279846D01*
X127656749Y-105277523D01*
X127761611Y-105204098D01*
X127839789Y-105149357D01*
X127839792Y-105149355D01*
X127844300Y-105146198D01*
X128006198Y-104984300D01*
X128137523Y-104796749D01*
X128139846Y-104791767D01*
X128139849Y-104791762D01*
X128231961Y-104594225D01*
X128231961Y-104594224D01*
X128234284Y-104589243D01*
X128293543Y-104368087D01*
X128313498Y-104140000D01*
X135846502Y-104140000D01*
X135866457Y-104368087D01*
X135925716Y-104589243D01*
X135928039Y-104594224D01*
X135928039Y-104594225D01*
X136020151Y-104791762D01*
X136020154Y-104791767D01*
X136022477Y-104796749D01*
X136153802Y-104984300D01*
X136315700Y-105146198D01*
X136320208Y-105149355D01*
X136320211Y-105149357D01*
X136398389Y-105204098D01*
X136503251Y-105277523D01*
X136508233Y-105279846D01*
X136508238Y-105279849D01*
X136705775Y-105371961D01*
X136710757Y-105374284D01*
X136716065Y-105375706D01*
X136716067Y-105375707D01*
X136926598Y-105432119D01*
X136926600Y-105432119D01*
X136931913Y-105433543D01*
X137160000Y-105453498D01*
X137388087Y-105433543D01*
X137393400Y-105432119D01*
X137393402Y-105432119D01*
X137603933Y-105375707D01*
X137603935Y-105375706D01*
X137609243Y-105374284D01*
X137614225Y-105371961D01*
X137811762Y-105279849D01*
X137811767Y-105279846D01*
X137816749Y-105277523D01*
X137921611Y-105204098D01*
X137999789Y-105149357D01*
X137999792Y-105149355D01*
X138004300Y-105146198D01*
X138166198Y-104984300D01*
X138297523Y-104796749D01*
X138299846Y-104791767D01*
X138299849Y-104791762D01*
X138391961Y-104594225D01*
X138391961Y-104594224D01*
X138394284Y-104589243D01*
X138453543Y-104368087D01*
X138473498Y-104140000D01*
X138453543Y-103911913D01*
X138422462Y-103795919D01*
X138395707Y-103696067D01*
X138395706Y-103696065D01*
X138394284Y-103690757D01*
X138370480Y-103639709D01*
X138299849Y-103488238D01*
X138299846Y-103488233D01*
X138297523Y-103483251D01*
X138224098Y-103378389D01*
X138169357Y-103300211D01*
X138169355Y-103300208D01*
X138166198Y-103295700D01*
X138004300Y-103133802D01*
X137999792Y-103130645D01*
X137999789Y-103130643D01*
X137921611Y-103075902D01*
X137816749Y-103002477D01*
X137811767Y-103000154D01*
X137811762Y-103000151D01*
X137614225Y-102908039D01*
X137614224Y-102908039D01*
X137609243Y-102905716D01*
X137603935Y-102904294D01*
X137603933Y-102904293D01*
X137393402Y-102847881D01*
X137393400Y-102847881D01*
X137388087Y-102846457D01*
X137160000Y-102826502D01*
X136931913Y-102846457D01*
X136926600Y-102847881D01*
X136926598Y-102847881D01*
X136716067Y-102904293D01*
X136716065Y-102904294D01*
X136710757Y-102905716D01*
X136705776Y-102908039D01*
X136705775Y-102908039D01*
X136508238Y-103000151D01*
X136508233Y-103000154D01*
X136503251Y-103002477D01*
X136398389Y-103075902D01*
X136320211Y-103130643D01*
X136320208Y-103130645D01*
X136315700Y-103133802D01*
X136153802Y-103295700D01*
X136150645Y-103300208D01*
X136150643Y-103300211D01*
X136095902Y-103378389D01*
X136022477Y-103483251D01*
X136020154Y-103488233D01*
X136020151Y-103488238D01*
X135949520Y-103639709D01*
X135925716Y-103690757D01*
X135924294Y-103696065D01*
X135924293Y-103696067D01*
X135897538Y-103795919D01*
X135866457Y-103911913D01*
X135846502Y-104140000D01*
X128313498Y-104140000D01*
X128293543Y-103911913D01*
X128262462Y-103795919D01*
X128235707Y-103696067D01*
X128235706Y-103696065D01*
X128234284Y-103690757D01*
X128210480Y-103639709D01*
X128139849Y-103488238D01*
X128139846Y-103488233D01*
X128137523Y-103483251D01*
X128064098Y-103378389D01*
X128009357Y-103300211D01*
X128009355Y-103300208D01*
X128006198Y-103295700D01*
X127844300Y-103133802D01*
X127839792Y-103130645D01*
X127839789Y-103130643D01*
X127761611Y-103075902D01*
X127656749Y-103002477D01*
X127651767Y-103000154D01*
X127651762Y-103000151D01*
X127454225Y-102908039D01*
X127454224Y-102908039D01*
X127449243Y-102905716D01*
X127443935Y-102904294D01*
X127443933Y-102904293D01*
X127233402Y-102847881D01*
X127233400Y-102847881D01*
X127228087Y-102846457D01*
X127000000Y-102826502D01*
X126771913Y-102846457D01*
X126766600Y-102847881D01*
X126766598Y-102847881D01*
X126556067Y-102904293D01*
X126556065Y-102904294D01*
X126550757Y-102905716D01*
X126545776Y-102908039D01*
X126545775Y-102908039D01*
X126348238Y-103000151D01*
X126348233Y-103000154D01*
X126343251Y-103002477D01*
X126238389Y-103075902D01*
X126160211Y-103130643D01*
X126160208Y-103130645D01*
X126155700Y-103133802D01*
X125993802Y-103295700D01*
X125990645Y-103300208D01*
X125990643Y-103300211D01*
X125935902Y-103378389D01*
X125862477Y-103483251D01*
X125860154Y-103488233D01*
X125860151Y-103488238D01*
X125789520Y-103639709D01*
X125765716Y-103690757D01*
X125764294Y-103696065D01*
X125764293Y-103696067D01*
X125737538Y-103795919D01*
X125706457Y-103911913D01*
X125686502Y-104140000D01*
X110508500Y-104140000D01*
X110508500Y-102362000D01*
X146056693Y-102362000D01*
X146075885Y-102581371D01*
X146132880Y-102794076D01*
X146148224Y-102826981D01*
X146223618Y-102988666D01*
X146223621Y-102988671D01*
X146225944Y-102993653D01*
X146229100Y-102998160D01*
X146229101Y-102998162D01*
X146232123Y-103002477D01*
X146352251Y-103174038D01*
X146507962Y-103329749D01*
X146512471Y-103332906D01*
X146512473Y-103332908D01*
X146628694Y-103414287D01*
X146673022Y-103469744D01*
X146680331Y-103540364D01*
X146648300Y-103603724D01*
X146587099Y-103639709D01*
X146556423Y-103643500D01*
X146521866Y-103643500D01*
X146459684Y-103650255D01*
X146323295Y-103701385D01*
X146206739Y-103788739D01*
X146119385Y-103905295D01*
X146068255Y-104041684D01*
X146061500Y-104103866D01*
X146061500Y-105700134D01*
X146068255Y-105762316D01*
X146119385Y-105898705D01*
X146206739Y-106015261D01*
X146323295Y-106102615D01*
X146459684Y-106153745D01*
X146521866Y-106160500D01*
X148118134Y-106160500D01*
X148180316Y-106153745D01*
X148316705Y-106102615D01*
X148433261Y-106015261D01*
X148520615Y-105898705D01*
X148571745Y-105762316D01*
X148578500Y-105700134D01*
X148578500Y-104103866D01*
X148571745Y-104041684D01*
X148520615Y-103905295D01*
X148433261Y-103788739D01*
X148316705Y-103701385D01*
X148180316Y-103650255D01*
X148118134Y-103643500D01*
X148083577Y-103643500D01*
X148015456Y-103623498D01*
X147968963Y-103569842D01*
X147958859Y-103499568D01*
X147988353Y-103434988D01*
X148011306Y-103414287D01*
X148127527Y-103332908D01*
X148127529Y-103332906D01*
X148132038Y-103329749D01*
X148287749Y-103174038D01*
X148407878Y-103002477D01*
X148410899Y-102998162D01*
X148410900Y-102998160D01*
X148414056Y-102993653D01*
X148416379Y-102988671D01*
X148416382Y-102988666D01*
X148491776Y-102826981D01*
X148507120Y-102794076D01*
X148564115Y-102581371D01*
X148583307Y-102362000D01*
X148564115Y-102142629D01*
X148507120Y-101929924D01*
X148463585Y-101836562D01*
X148416382Y-101735334D01*
X148416379Y-101735329D01*
X148414056Y-101730347D01*
X148287749Y-101549962D01*
X148132038Y-101394251D01*
X147951654Y-101267944D01*
X147946672Y-101265621D01*
X147946667Y-101265618D01*
X147818641Y-101205919D01*
X147765356Y-101159002D01*
X147745895Y-101090724D01*
X147766437Y-101022764D01*
X147818641Y-100977529D01*
X147946416Y-100917947D01*
X147955912Y-100912464D01*
X147997148Y-100883590D01*
X148005523Y-100873112D01*
X147998457Y-100859668D01*
X147332811Y-100194021D01*
X147318868Y-100186408D01*
X147317034Y-100186539D01*
X147310420Y-100190790D01*
X146640820Y-100860391D01*
X146634393Y-100872161D01*
X146643687Y-100884175D01*
X146684088Y-100912464D01*
X146693584Y-100917947D01*
X146821359Y-100977529D01*
X146874644Y-101024446D01*
X146894105Y-101092724D01*
X146873563Y-101160684D01*
X146821359Y-101205919D01*
X146693334Y-101265618D01*
X146693329Y-101265621D01*
X146688347Y-101267944D01*
X146683840Y-101271100D01*
X146683838Y-101271101D01*
X146512473Y-101391092D01*
X146512470Y-101391094D01*
X146507962Y-101394251D01*
X146352251Y-101549962D01*
X146225944Y-101730347D01*
X146223621Y-101735329D01*
X146223618Y-101735334D01*
X146176415Y-101836562D01*
X146132880Y-101929924D01*
X146075885Y-102142629D01*
X146056693Y-102362000D01*
X110508500Y-102362000D01*
X110508500Y-99060000D01*
X125686502Y-99060000D01*
X125706457Y-99288087D01*
X125707881Y-99293400D01*
X125707881Y-99293402D01*
X125717031Y-99327548D01*
X125765716Y-99509243D01*
X125768039Y-99514224D01*
X125768039Y-99514225D01*
X125860151Y-99711762D01*
X125860154Y-99711767D01*
X125862477Y-99716749D01*
X125993802Y-99904300D01*
X126155700Y-100066198D01*
X126160208Y-100069355D01*
X126160211Y-100069357D01*
X126238389Y-100124098D01*
X126343251Y-100197523D01*
X126348233Y-100199846D01*
X126348238Y-100199849D01*
X126474847Y-100258887D01*
X126550757Y-100294284D01*
X126556065Y-100295706D01*
X126556067Y-100295707D01*
X126766598Y-100352119D01*
X126766600Y-100352119D01*
X126771913Y-100353543D01*
X127000000Y-100373498D01*
X127228087Y-100353543D01*
X127233400Y-100352119D01*
X127233402Y-100352119D01*
X127443933Y-100295707D01*
X127443935Y-100295706D01*
X127449243Y-100294284D01*
X127525153Y-100258887D01*
X127651762Y-100199849D01*
X127651767Y-100199846D01*
X127656749Y-100197523D01*
X127761611Y-100124098D01*
X127839789Y-100069357D01*
X127839792Y-100069355D01*
X127844300Y-100066198D01*
X128006198Y-99904300D01*
X128137523Y-99716749D01*
X128139846Y-99711767D01*
X128139849Y-99711762D01*
X128231961Y-99514225D01*
X128231961Y-99514224D01*
X128234284Y-99509243D01*
X128282970Y-99327548D01*
X128283245Y-99326522D01*
X135877273Y-99326522D01*
X135924764Y-99503761D01*
X135928510Y-99514053D01*
X136020586Y-99711511D01*
X136026069Y-99721007D01*
X136151028Y-99899467D01*
X136158084Y-99907875D01*
X136312125Y-100061916D01*
X136320533Y-100068972D01*
X136498993Y-100193931D01*
X136508489Y-100199414D01*
X136705947Y-100291490D01*
X136716239Y-100295236D01*
X136888503Y-100341394D01*
X136902599Y-100341058D01*
X136906000Y-100333116D01*
X136906000Y-100327967D01*
X137414000Y-100327967D01*
X137417973Y-100341498D01*
X137426522Y-100342727D01*
X137603761Y-100295236D01*
X137614053Y-100291490D01*
X137811511Y-100199414D01*
X137821007Y-100193931D01*
X137999467Y-100068972D01*
X138007875Y-100061916D01*
X138161916Y-99907875D01*
X138168972Y-99899467D01*
X138219381Y-99827475D01*
X146057674Y-99827475D01*
X146075901Y-100035804D01*
X146077804Y-100046599D01*
X146131928Y-100248595D01*
X146135674Y-100258887D01*
X146224054Y-100448417D01*
X146229534Y-100457907D01*
X146258411Y-100499149D01*
X146268887Y-100507523D01*
X146282334Y-100500455D01*
X146947979Y-99834811D01*
X146954356Y-99823132D01*
X147684408Y-99823132D01*
X147684539Y-99824966D01*
X147688790Y-99831580D01*
X148358391Y-100501180D01*
X148370161Y-100507607D01*
X148382176Y-100498311D01*
X148410466Y-100457907D01*
X148415946Y-100448417D01*
X148504326Y-100258887D01*
X148508072Y-100248595D01*
X148562196Y-100046599D01*
X148564099Y-100035804D01*
X148582326Y-99827475D01*
X148582326Y-99816525D01*
X148564099Y-99608196D01*
X148562196Y-99597401D01*
X148508072Y-99395405D01*
X148504326Y-99385113D01*
X148415946Y-99195583D01*
X148410466Y-99186093D01*
X148381589Y-99144851D01*
X148371113Y-99136477D01*
X148357666Y-99143545D01*
X147692021Y-99809189D01*
X147684408Y-99823132D01*
X146954356Y-99823132D01*
X146955592Y-99820868D01*
X146955461Y-99819034D01*
X146951210Y-99812420D01*
X146281609Y-99142820D01*
X146269839Y-99136393D01*
X146257824Y-99145689D01*
X146229534Y-99186093D01*
X146224054Y-99195583D01*
X146135674Y-99385113D01*
X146131928Y-99395405D01*
X146077804Y-99597401D01*
X146075901Y-99608196D01*
X146057674Y-99816525D01*
X146057674Y-99827475D01*
X138219381Y-99827475D01*
X138293931Y-99721007D01*
X138299414Y-99711511D01*
X138391490Y-99514053D01*
X138395236Y-99503761D01*
X138441394Y-99331497D01*
X138441058Y-99317401D01*
X138433116Y-99314000D01*
X137432115Y-99314000D01*
X137416876Y-99318475D01*
X137415671Y-99319865D01*
X137414000Y-99327548D01*
X137414000Y-100327967D01*
X136906000Y-100327967D01*
X136906000Y-99332115D01*
X136901525Y-99316876D01*
X136900135Y-99315671D01*
X136892452Y-99314000D01*
X135892033Y-99314000D01*
X135878502Y-99317973D01*
X135877273Y-99326522D01*
X128283245Y-99326522D01*
X128292119Y-99293402D01*
X128292119Y-99293400D01*
X128293543Y-99288087D01*
X128313498Y-99060000D01*
X128293543Y-98831913D01*
X128283244Y-98793478D01*
X128281911Y-98788503D01*
X135878606Y-98788503D01*
X135878942Y-98802599D01*
X135886884Y-98806000D01*
X136887885Y-98806000D01*
X136903124Y-98801525D01*
X136904329Y-98800135D01*
X136906000Y-98792452D01*
X136906000Y-98787885D01*
X137414000Y-98787885D01*
X137418475Y-98803124D01*
X137419865Y-98804329D01*
X137427548Y-98806000D01*
X138427967Y-98806000D01*
X138441498Y-98802027D01*
X138442727Y-98793478D01*
X138436674Y-98770887D01*
X146634477Y-98770887D01*
X146641545Y-98784334D01*
X147307189Y-99449979D01*
X147321132Y-99457592D01*
X147322966Y-99457461D01*
X147329580Y-99453210D01*
X147999180Y-98783609D01*
X148005607Y-98771839D01*
X147996313Y-98759825D01*
X147955912Y-98731536D01*
X147946416Y-98726053D01*
X147756887Y-98637674D01*
X147746595Y-98633928D01*
X147544599Y-98579804D01*
X147533804Y-98577901D01*
X147325475Y-98559674D01*
X147314525Y-98559674D01*
X147106196Y-98577901D01*
X147095401Y-98579804D01*
X146893405Y-98633928D01*
X146883113Y-98637674D01*
X146693583Y-98726054D01*
X146684093Y-98731534D01*
X146642851Y-98760411D01*
X146634477Y-98770887D01*
X138436674Y-98770887D01*
X138395236Y-98616239D01*
X138391490Y-98605947D01*
X138299414Y-98408489D01*
X138293931Y-98398993D01*
X138168972Y-98220533D01*
X138161916Y-98212125D01*
X138007875Y-98058084D01*
X137999467Y-98051028D01*
X137821007Y-97926069D01*
X137811511Y-97920586D01*
X137614053Y-97828510D01*
X137603761Y-97824764D01*
X137431497Y-97778606D01*
X137417401Y-97778942D01*
X137414000Y-97786884D01*
X137414000Y-98787885D01*
X136906000Y-98787885D01*
X136906000Y-97792033D01*
X136902027Y-97778502D01*
X136893478Y-97777273D01*
X136716239Y-97824764D01*
X136705947Y-97828510D01*
X136508489Y-97920586D01*
X136498993Y-97926069D01*
X136320533Y-98051028D01*
X136312125Y-98058084D01*
X136158084Y-98212125D01*
X136151028Y-98220533D01*
X136026069Y-98398993D01*
X136020586Y-98408489D01*
X135928510Y-98605947D01*
X135924764Y-98616239D01*
X135878606Y-98788503D01*
X128281911Y-98788503D01*
X128235707Y-98616067D01*
X128235706Y-98616065D01*
X128234284Y-98610757D01*
X128231961Y-98605775D01*
X128139849Y-98408238D01*
X128139846Y-98408233D01*
X128137523Y-98403251D01*
X128006198Y-98215700D01*
X127844300Y-98053802D01*
X127839792Y-98050645D01*
X127839789Y-98050643D01*
X127761611Y-97995902D01*
X127656749Y-97922477D01*
X127651767Y-97920154D01*
X127651762Y-97920151D01*
X127454225Y-97828039D01*
X127454224Y-97828039D01*
X127449243Y-97825716D01*
X127443935Y-97824294D01*
X127443933Y-97824293D01*
X127233402Y-97767881D01*
X127233400Y-97767881D01*
X127228087Y-97766457D01*
X127000000Y-97746502D01*
X126771913Y-97766457D01*
X126766600Y-97767881D01*
X126766598Y-97767881D01*
X126556067Y-97824293D01*
X126556065Y-97824294D01*
X126550757Y-97825716D01*
X126545776Y-97828039D01*
X126545775Y-97828039D01*
X126348238Y-97920151D01*
X126348233Y-97920154D01*
X126343251Y-97922477D01*
X126238389Y-97995902D01*
X126160211Y-98050643D01*
X126160208Y-98050645D01*
X126155700Y-98053802D01*
X125993802Y-98215700D01*
X125862477Y-98403251D01*
X125860154Y-98408233D01*
X125860151Y-98408238D01*
X125768039Y-98605775D01*
X125765716Y-98610757D01*
X125764294Y-98616065D01*
X125764293Y-98616067D01*
X125716756Y-98793478D01*
X125706457Y-98831913D01*
X125686502Y-99060000D01*
X110508500Y-99060000D01*
X110508500Y-93973134D01*
X126971500Y-93973134D01*
X126971869Y-93976531D01*
X126972185Y-93979440D01*
X126978255Y-94035316D01*
X127029385Y-94171705D01*
X127116739Y-94288261D01*
X127233295Y-94375615D01*
X127369684Y-94426745D01*
X127431866Y-94433500D01*
X129128134Y-94433500D01*
X129190316Y-94426745D01*
X129326705Y-94375615D01*
X129443261Y-94288261D01*
X129530615Y-94171705D01*
X129581745Y-94035316D01*
X129582917Y-94024526D01*
X129583803Y-94022394D01*
X129584425Y-94019778D01*
X129584848Y-94019879D01*
X129610155Y-93958965D01*
X129668517Y-93918537D01*
X129739471Y-93916078D01*
X129800490Y-93952371D01*
X129807489Y-93961031D01*
X129810643Y-93964789D01*
X129813802Y-93969300D01*
X129975700Y-94131198D01*
X129980208Y-94134355D01*
X129980211Y-94134357D01*
X129996014Y-94145422D01*
X130163251Y-94262523D01*
X130168233Y-94264846D01*
X130168238Y-94264849D01*
X130364765Y-94356490D01*
X130370757Y-94359284D01*
X130376065Y-94360706D01*
X130376067Y-94360707D01*
X130586598Y-94417119D01*
X130586600Y-94417119D01*
X130591913Y-94418543D01*
X130820000Y-94438498D01*
X131048087Y-94418543D01*
X131053400Y-94417119D01*
X131053402Y-94417119D01*
X131263933Y-94360707D01*
X131263935Y-94360706D01*
X131269243Y-94359284D01*
X131275235Y-94356490D01*
X131471762Y-94264849D01*
X131471767Y-94264846D01*
X131476749Y-94262523D01*
X131643986Y-94145422D01*
X131659789Y-94134357D01*
X131659792Y-94134355D01*
X131664300Y-94131198D01*
X131826198Y-93969300D01*
X131839275Y-93950625D01*
X131954366Y-93786257D01*
X131957523Y-93781749D01*
X131959846Y-93776767D01*
X131959849Y-93776762D01*
X131975805Y-93742543D01*
X132022722Y-93689258D01*
X132090999Y-93669797D01*
X132158959Y-93690339D01*
X132204195Y-93742543D01*
X132220151Y-93776762D01*
X132220154Y-93776767D01*
X132222477Y-93781749D01*
X132225634Y-93786257D01*
X132340726Y-93950625D01*
X132353802Y-93969300D01*
X132515700Y-94131198D01*
X132520208Y-94134355D01*
X132520211Y-94134357D01*
X132536014Y-94145422D01*
X132703251Y-94262523D01*
X132708233Y-94264846D01*
X132708238Y-94264849D01*
X132904765Y-94356490D01*
X132910757Y-94359284D01*
X132916065Y-94360706D01*
X132916067Y-94360707D01*
X133126598Y-94417119D01*
X133126600Y-94417119D01*
X133131913Y-94418543D01*
X133360000Y-94438498D01*
X133588087Y-94418543D01*
X133593400Y-94417119D01*
X133593402Y-94417119D01*
X133803933Y-94360707D01*
X133803935Y-94360706D01*
X133809243Y-94359284D01*
X133815235Y-94356490D01*
X134011762Y-94264849D01*
X134011767Y-94264846D01*
X134016749Y-94262523D01*
X134183986Y-94145422D01*
X134199789Y-94134357D01*
X134199792Y-94134355D01*
X134204300Y-94131198D01*
X134366198Y-93969300D01*
X134379275Y-93950625D01*
X134494366Y-93786257D01*
X134497523Y-93781749D01*
X134499846Y-93776767D01*
X134499849Y-93776762D01*
X134516081Y-93741951D01*
X134562998Y-93688666D01*
X134631275Y-93669205D01*
X134699235Y-93689747D01*
X134744471Y-93741951D01*
X134760586Y-93776511D01*
X134766069Y-93786007D01*
X134891028Y-93964467D01*
X134898084Y-93972875D01*
X135052125Y-94126916D01*
X135060533Y-94133972D01*
X135238993Y-94258931D01*
X135248489Y-94264414D01*
X135445947Y-94356490D01*
X135456239Y-94360236D01*
X135628503Y-94406394D01*
X135642599Y-94406058D01*
X135646000Y-94398116D01*
X135646000Y-94392967D01*
X136154000Y-94392967D01*
X136157973Y-94406498D01*
X136166522Y-94407727D01*
X136343761Y-94360236D01*
X136354053Y-94356490D01*
X136551511Y-94264414D01*
X136561007Y-94258931D01*
X136739467Y-94133972D01*
X136747875Y-94126916D01*
X136901916Y-93972875D01*
X136908972Y-93964467D01*
X136922275Y-93945469D01*
X145272095Y-93945469D01*
X145272392Y-93950622D01*
X145272392Y-93950625D01*
X145278067Y-94049041D01*
X145285427Y-94176697D01*
X145286564Y-94181743D01*
X145286565Y-94181749D01*
X145310569Y-94288261D01*
X145336346Y-94402642D01*
X145338288Y-94407424D01*
X145338289Y-94407428D01*
X145421540Y-94612450D01*
X145423484Y-94617237D01*
X145544501Y-94814719D01*
X145696147Y-94989784D01*
X145874349Y-95137730D01*
X146074322Y-95254584D01*
X146290694Y-95337209D01*
X146295760Y-95338240D01*
X146295761Y-95338240D01*
X146348846Y-95349040D01*
X146517656Y-95383385D01*
X146648324Y-95388176D01*
X146743949Y-95391683D01*
X146743953Y-95391683D01*
X146749113Y-95391872D01*
X146754233Y-95391216D01*
X146754235Y-95391216D01*
X146827270Y-95381860D01*
X146978847Y-95362442D01*
X146983795Y-95360957D01*
X146983802Y-95360956D01*
X147195747Y-95297369D01*
X147200690Y-95295886D01*
X147265747Y-95264015D01*
X147404049Y-95196262D01*
X147404052Y-95196260D01*
X147408684Y-95193991D01*
X147597243Y-95059494D01*
X147753442Y-94903839D01*
X150682173Y-94903839D01*
X150682397Y-94908505D01*
X150682397Y-94908511D01*
X150686301Y-94989784D01*
X150694713Y-95164908D01*
X150745704Y-95421256D01*
X150834026Y-95667252D01*
X150836242Y-95671376D01*
X150946139Y-95875905D01*
X150957737Y-95897491D01*
X150960532Y-95901234D01*
X150960534Y-95901237D01*
X151111330Y-96103177D01*
X151111335Y-96103183D01*
X151114122Y-96106915D01*
X151117431Y-96110195D01*
X151117436Y-96110201D01*
X151296426Y-96287635D01*
X151299743Y-96290923D01*
X151303505Y-96293681D01*
X151303508Y-96293684D01*
X151483576Y-96425715D01*
X151510524Y-96445474D01*
X151514667Y-96447654D01*
X151514669Y-96447655D01*
X151737684Y-96564989D01*
X151737689Y-96564991D01*
X151741834Y-96567172D01*
X151988590Y-96653344D01*
X151993183Y-96654216D01*
X152240785Y-96701224D01*
X152240788Y-96701224D01*
X152245374Y-96702095D01*
X152375958Y-96707226D01*
X152501875Y-96712174D01*
X152501881Y-96712174D01*
X152506543Y-96712357D01*
X152585977Y-96703657D01*
X152761707Y-96684412D01*
X152761712Y-96684411D01*
X152766360Y-96683902D01*
X152827486Y-96667809D01*
X153014594Y-96618548D01*
X153014596Y-96618547D01*
X153019117Y-96617357D01*
X153259262Y-96514182D01*
X153481519Y-96376646D01*
X153485082Y-96373629D01*
X153485087Y-96373626D01*
X153677439Y-96210787D01*
X153677440Y-96210786D01*
X153681005Y-96207768D01*
X153845236Y-96020499D01*
X153850257Y-96014774D01*
X153850261Y-96014769D01*
X153853339Y-96011259D01*
X153889569Y-95954934D01*
X153992205Y-95795367D01*
X153994733Y-95791437D01*
X154102083Y-95553129D01*
X154150247Y-95382355D01*
X154171760Y-95306076D01*
X154171761Y-95306073D01*
X154173030Y-95301572D01*
X154187336Y-95189113D01*
X154205616Y-95045421D01*
X154205616Y-95045417D01*
X154206014Y-95042291D01*
X154208431Y-94950000D01*
X162139556Y-94950000D01*
X162159312Y-95264015D01*
X162218269Y-95573079D01*
X162315497Y-95872315D01*
X162317184Y-95875901D01*
X162317186Y-95875905D01*
X162447775Y-96153421D01*
X162447779Y-96153428D01*
X162449463Y-96157007D01*
X162618053Y-96422663D01*
X162620578Y-96425715D01*
X162808890Y-96653344D01*
X162818610Y-96665094D01*
X162821500Y-96667808D01*
X162821501Y-96667809D01*
X162857084Y-96701224D01*
X163047970Y-96880478D01*
X163051172Y-96882805D01*
X163051174Y-96882806D01*
X163299307Y-97063085D01*
X163299312Y-97063088D01*
X163302516Y-97065416D01*
X163578234Y-97216994D01*
X163737637Y-97280106D01*
X163867092Y-97331361D01*
X163867095Y-97331362D01*
X163870775Y-97332819D01*
X163874609Y-97333803D01*
X163874617Y-97333806D01*
X164063074Y-97382193D01*
X164175527Y-97411066D01*
X164179455Y-97411562D01*
X164179459Y-97411563D01*
X164303375Y-97427217D01*
X164487682Y-97450500D01*
X164802318Y-97450500D01*
X164986625Y-97427217D01*
X165110541Y-97411563D01*
X165110545Y-97411562D01*
X165114473Y-97411066D01*
X165226926Y-97382193D01*
X165415383Y-97333806D01*
X165415391Y-97333803D01*
X165419225Y-97332819D01*
X165422905Y-97331362D01*
X165422908Y-97331361D01*
X165552363Y-97280106D01*
X165711766Y-97216994D01*
X165987484Y-97065416D01*
X165990688Y-97063088D01*
X165990693Y-97063085D01*
X166238826Y-96882806D01*
X166238828Y-96882805D01*
X166242030Y-96880478D01*
X166432916Y-96701224D01*
X166468499Y-96667809D01*
X166468500Y-96667808D01*
X166471390Y-96665094D01*
X166481111Y-96653344D01*
X166669422Y-96425715D01*
X166671947Y-96422663D01*
X166840537Y-96157007D01*
X166842221Y-96153428D01*
X166842225Y-96153421D01*
X166972814Y-95875905D01*
X166972816Y-95875901D01*
X166974503Y-95872315D01*
X167071731Y-95573079D01*
X167130688Y-95264015D01*
X167150444Y-94950000D01*
X167130688Y-94635985D01*
X167071731Y-94326921D01*
X166979387Y-94042715D01*
X166975729Y-94031458D01*
X166975729Y-94031457D01*
X166974503Y-94027685D01*
X166972814Y-94024095D01*
X166842225Y-93746579D01*
X166842221Y-93746572D01*
X166840537Y-93742993D01*
X166671947Y-93477337D01*
X166471390Y-93234906D01*
X166357399Y-93127861D01*
X171222000Y-93127861D01*
X171222001Y-94832138D01*
X171233449Y-94972903D01*
X171234783Y-94978099D01*
X171234784Y-94978104D01*
X171254746Y-95055850D01*
X171288963Y-95189113D01*
X171291299Y-95194216D01*
X171291300Y-95194218D01*
X171321441Y-95260052D01*
X171381886Y-95392076D01*
X171385086Y-95396680D01*
X171385087Y-95396682D01*
X171405221Y-95425651D01*
X171509282Y-95575375D01*
X171667125Y-95733218D01*
X171850424Y-95860614D01*
X171883823Y-95875905D01*
X172048282Y-95951200D01*
X172048284Y-95951201D01*
X172053387Y-95953537D01*
X172269597Y-96009051D01*
X172333731Y-96014267D01*
X172407810Y-96020293D01*
X172407822Y-96020293D01*
X172410361Y-96020500D01*
X174021869Y-96020500D01*
X175634638Y-96020499D01*
X175775403Y-96009051D01*
X175780599Y-96007717D01*
X175780604Y-96007716D01*
X175986172Y-95954934D01*
X175991613Y-95953537D01*
X175996716Y-95951201D01*
X175996718Y-95951200D01*
X176161177Y-95875905D01*
X176194576Y-95860614D01*
X176377875Y-95733218D01*
X176535718Y-95575375D01*
X176639779Y-95425651D01*
X176659913Y-95396682D01*
X176659914Y-95396680D01*
X176663114Y-95392076D01*
X176723559Y-95260052D01*
X176753700Y-95194218D01*
X176753701Y-95194216D01*
X176756037Y-95189113D01*
X176811551Y-94972903D01*
X176817547Y-94899185D01*
X176822793Y-94834690D01*
X176822793Y-94834678D01*
X176823000Y-94832139D01*
X176822999Y-93127862D01*
X176811551Y-92987097D01*
X176810216Y-92981895D01*
X176757434Y-92776328D01*
X176756037Y-92770887D01*
X176663114Y-92567924D01*
X176535718Y-92384625D01*
X176377875Y-92226782D01*
X176248105Y-92136589D01*
X176199182Y-92102587D01*
X176199180Y-92102586D01*
X176194576Y-92099386D01*
X175997264Y-92009050D01*
X175996718Y-92008800D01*
X175996716Y-92008799D01*
X175991613Y-92006463D01*
X175775403Y-91950949D01*
X175711269Y-91945733D01*
X175637190Y-91939707D01*
X175637178Y-91939707D01*
X175634639Y-91939500D01*
X174023131Y-91939500D01*
X172410362Y-91939501D01*
X172269597Y-91950949D01*
X172264401Y-91952283D01*
X172264396Y-91952284D01*
X172133368Y-91985927D01*
X172053387Y-92006463D01*
X172048284Y-92008799D01*
X172048282Y-92008800D01*
X172047736Y-92009050D01*
X171850424Y-92099386D01*
X171845820Y-92102586D01*
X171845818Y-92102587D01*
X171796895Y-92136589D01*
X171667125Y-92226782D01*
X171509282Y-92384625D01*
X171381886Y-92567924D01*
X171288963Y-92770887D01*
X171233449Y-92987097D01*
X171231001Y-93017194D01*
X171222208Y-93125309D01*
X171222000Y-93127861D01*
X166357399Y-93127861D01*
X166242030Y-93019522D01*
X166238826Y-93017194D01*
X165990693Y-92836915D01*
X165990688Y-92836912D01*
X165987484Y-92834584D01*
X165838407Y-92752628D01*
X165715228Y-92684909D01*
X165715225Y-92684907D01*
X165711766Y-92683006D01*
X165513149Y-92604368D01*
X165422908Y-92568639D01*
X165422905Y-92568638D01*
X165419225Y-92567181D01*
X165415391Y-92566197D01*
X165415383Y-92566194D01*
X165215686Y-92514921D01*
X165114473Y-92488934D01*
X165110545Y-92488438D01*
X165110541Y-92488437D01*
X164986625Y-92472783D01*
X164802318Y-92449500D01*
X164487682Y-92449500D01*
X164303375Y-92472783D01*
X164179459Y-92488437D01*
X164179455Y-92488438D01*
X164175527Y-92488934D01*
X164074314Y-92514921D01*
X163874617Y-92566194D01*
X163874609Y-92566197D01*
X163870775Y-92567181D01*
X163867095Y-92568638D01*
X163867092Y-92568639D01*
X163776851Y-92604368D01*
X163578234Y-92683006D01*
X163574775Y-92684907D01*
X163574772Y-92684909D01*
X163451593Y-92752628D01*
X163302516Y-92834584D01*
X163299312Y-92836912D01*
X163299307Y-92836915D01*
X163051174Y-93017194D01*
X163047970Y-93019522D01*
X162818610Y-93234906D01*
X162618053Y-93477337D01*
X162449463Y-93742993D01*
X162447779Y-93746572D01*
X162447775Y-93746579D01*
X162317186Y-94024095D01*
X162315497Y-94027685D01*
X162314271Y-94031457D01*
X162314271Y-94031458D01*
X162310613Y-94042715D01*
X162218269Y-94326921D01*
X162159312Y-94635985D01*
X162139556Y-94950000D01*
X154208431Y-94950000D01*
X154204655Y-94899185D01*
X154189407Y-94694000D01*
X154189406Y-94693996D01*
X154189061Y-94689348D01*
X154177725Y-94639248D01*
X154132408Y-94438980D01*
X154131377Y-94434423D01*
X154128391Y-94426745D01*
X154038340Y-94195176D01*
X154038339Y-94195173D01*
X154036647Y-94190823D01*
X153906951Y-93963902D01*
X153745138Y-93758643D01*
X153554763Y-93579557D01*
X153340009Y-93430576D01*
X153335816Y-93428508D01*
X153109781Y-93317040D01*
X153109778Y-93317039D01*
X153105593Y-93314975D01*
X153096709Y-93312131D01*
X152861123Y-93236720D01*
X152856665Y-93235293D01*
X152598693Y-93193279D01*
X152484942Y-93191790D01*
X152342022Y-93189919D01*
X152342019Y-93189919D01*
X152337345Y-93189858D01*
X152078362Y-93225104D01*
X152073876Y-93226412D01*
X152073874Y-93226412D01*
X152045988Y-93234540D01*
X151827433Y-93298243D01*
X151823180Y-93300203D01*
X151823179Y-93300204D01*
X151787032Y-93316868D01*
X151590072Y-93407668D01*
X151551067Y-93433241D01*
X151375404Y-93548410D01*
X151375399Y-93548414D01*
X151371491Y-93550976D01*
X151176494Y-93725018D01*
X151009363Y-93925970D01*
X151006934Y-93929973D01*
X150882911Y-94134357D01*
X150873771Y-94149419D01*
X150772697Y-94390455D01*
X150708359Y-94643783D01*
X150682173Y-94903839D01*
X147753442Y-94903839D01*
X147761303Y-94896005D01*
X147896458Y-94707917D01*
X147905636Y-94689348D01*
X147996784Y-94504922D01*
X147996785Y-94504920D01*
X147999078Y-94500280D01*
X148066408Y-94278671D01*
X148096640Y-94049041D01*
X148096795Y-94042715D01*
X148098245Y-93983365D01*
X148098245Y-93983361D01*
X148098327Y-93980000D01*
X148092032Y-93903434D01*
X148079773Y-93754318D01*
X148079772Y-93754312D01*
X148079349Y-93749167D01*
X148036746Y-93579557D01*
X148024184Y-93529544D01*
X148024183Y-93529540D01*
X148022925Y-93524533D01*
X148020866Y-93519797D01*
X147932630Y-93316868D01*
X147932628Y-93316865D01*
X147930570Y-93312131D01*
X147804764Y-93117665D01*
X147648887Y-92946358D01*
X147644836Y-92943159D01*
X147644832Y-92943155D01*
X147471177Y-92806011D01*
X147471172Y-92806008D01*
X147467123Y-92802810D01*
X147462607Y-92800317D01*
X147462604Y-92800315D01*
X147268879Y-92693373D01*
X147268875Y-92693371D01*
X147264355Y-92690876D01*
X147259486Y-92689152D01*
X147259482Y-92689150D01*
X147050903Y-92615288D01*
X147050899Y-92615287D01*
X147046028Y-92613562D01*
X147040935Y-92612655D01*
X147040932Y-92612654D01*
X146823095Y-92573851D01*
X146823089Y-92573850D01*
X146818006Y-92572945D01*
X146745096Y-92572054D01*
X146591581Y-92570179D01*
X146591579Y-92570179D01*
X146586411Y-92570116D01*
X146357464Y-92605150D01*
X146137314Y-92677106D01*
X146132726Y-92679494D01*
X146132722Y-92679496D01*
X145936461Y-92781663D01*
X145931872Y-92784052D01*
X145927739Y-92787155D01*
X145927736Y-92787157D01*
X145750790Y-92920012D01*
X145746655Y-92923117D01*
X145586639Y-93090564D01*
X145583725Y-93094836D01*
X145583724Y-93094837D01*
X145562937Y-93125310D01*
X145456119Y-93281899D01*
X145358602Y-93491981D01*
X145296707Y-93715169D01*
X145272095Y-93945469D01*
X136922275Y-93945469D01*
X137033931Y-93786007D01*
X137039414Y-93776511D01*
X137131490Y-93579053D01*
X137135236Y-93568761D01*
X137191625Y-93358312D01*
X137193528Y-93347519D01*
X137207762Y-93184830D01*
X137208000Y-93179365D01*
X137208000Y-92997115D01*
X137203525Y-92981876D01*
X137202135Y-92980671D01*
X137194452Y-92979000D01*
X136172115Y-92979000D01*
X136156876Y-92983475D01*
X136155671Y-92984865D01*
X136154000Y-92992548D01*
X136154000Y-94392967D01*
X135646000Y-94392967D01*
X135646000Y-92592670D01*
X138832160Y-92592670D01*
X138837887Y-92600320D01*
X139009042Y-92705205D01*
X139017837Y-92709687D01*
X139227988Y-92796734D01*
X139237373Y-92799783D01*
X139458554Y-92852885D01*
X139468301Y-92854428D01*
X139695070Y-92872275D01*
X139704930Y-92872275D01*
X139931699Y-92854428D01*
X139941446Y-92852885D01*
X140162627Y-92799783D01*
X140172012Y-92796734D01*
X140382163Y-92709687D01*
X140390958Y-92705205D01*
X140558445Y-92602568D01*
X140567907Y-92592110D01*
X140564124Y-92583334D01*
X139712812Y-91732022D01*
X139698868Y-91724408D01*
X139697035Y-91724539D01*
X139690420Y-91728790D01*
X138838920Y-92580290D01*
X138832160Y-92592670D01*
X135646000Y-92592670D01*
X135646000Y-92452885D01*
X136154000Y-92452885D01*
X136158475Y-92468124D01*
X136159865Y-92469329D01*
X136167548Y-92471000D01*
X137189885Y-92471000D01*
X137205124Y-92466525D01*
X137206329Y-92465135D01*
X137208000Y-92457452D01*
X137208000Y-92270635D01*
X137207762Y-92265170D01*
X137193528Y-92102481D01*
X137191625Y-92091688D01*
X137135236Y-91881239D01*
X137131490Y-91870947D01*
X137039414Y-91673489D01*
X137033931Y-91663993D01*
X136908972Y-91485533D01*
X136901916Y-91477125D01*
X136789721Y-91364930D01*
X138187725Y-91364930D01*
X138205572Y-91591699D01*
X138207115Y-91601446D01*
X138260217Y-91822627D01*
X138263266Y-91832012D01*
X138350313Y-92042163D01*
X138354795Y-92050958D01*
X138457432Y-92218445D01*
X138467890Y-92227907D01*
X138476666Y-92224124D01*
X139327978Y-91372812D01*
X139334356Y-91361132D01*
X140064408Y-91361132D01*
X140064539Y-91362965D01*
X140068790Y-91369580D01*
X140920290Y-92221080D01*
X140932670Y-92227840D01*
X140940320Y-92222113D01*
X141045205Y-92050958D01*
X141049687Y-92042163D01*
X141136734Y-91832012D01*
X141139783Y-91822627D01*
X141192885Y-91601446D01*
X141194428Y-91591699D01*
X141212275Y-91364930D01*
X141212275Y-91355070D01*
X141194428Y-91128301D01*
X141192885Y-91118554D01*
X141139783Y-90897373D01*
X141136734Y-90887988D01*
X141049687Y-90677837D01*
X141045205Y-90669042D01*
X140942568Y-90501555D01*
X140932110Y-90492093D01*
X140923334Y-90495876D01*
X140072022Y-91347188D01*
X140064408Y-91361132D01*
X139334356Y-91361132D01*
X139335592Y-91358868D01*
X139335461Y-91357035D01*
X139331210Y-91350420D01*
X138479710Y-90498920D01*
X138467330Y-90492160D01*
X138459680Y-90497887D01*
X138354795Y-90669042D01*
X138350313Y-90677837D01*
X138263266Y-90887988D01*
X138260217Y-90897373D01*
X138207115Y-91118554D01*
X138205572Y-91128301D01*
X138187725Y-91355070D01*
X138187725Y-91364930D01*
X136789721Y-91364930D01*
X136747875Y-91323084D01*
X136739467Y-91316028D01*
X136561007Y-91191069D01*
X136551511Y-91185586D01*
X136354053Y-91093510D01*
X136343761Y-91089764D01*
X136171497Y-91043606D01*
X136157401Y-91043942D01*
X136154000Y-91051884D01*
X136154000Y-92452885D01*
X135646000Y-92452885D01*
X135646000Y-91057033D01*
X135642027Y-91043502D01*
X135633478Y-91042273D01*
X135456239Y-91089764D01*
X135445947Y-91093510D01*
X135248489Y-91185586D01*
X135238993Y-91191069D01*
X135060533Y-91316028D01*
X135052125Y-91323084D01*
X134898084Y-91477125D01*
X134891028Y-91485533D01*
X134766069Y-91663993D01*
X134760586Y-91673489D01*
X134744471Y-91708049D01*
X134697554Y-91761334D01*
X134629277Y-91780795D01*
X134561317Y-91760253D01*
X134516081Y-91708049D01*
X134499849Y-91673238D01*
X134499846Y-91673233D01*
X134497523Y-91668251D01*
X134366198Y-91480700D01*
X134204300Y-91318802D01*
X134199792Y-91315645D01*
X134199789Y-91315643D01*
X134121611Y-91260902D01*
X134016749Y-91187477D01*
X134011767Y-91185154D01*
X134011762Y-91185151D01*
X133814225Y-91093039D01*
X133814224Y-91093039D01*
X133809243Y-91090716D01*
X133803935Y-91089294D01*
X133803933Y-91089293D01*
X133593402Y-91032881D01*
X133593400Y-91032881D01*
X133588087Y-91031457D01*
X133360000Y-91011502D01*
X133131913Y-91031457D01*
X133126600Y-91032881D01*
X133126598Y-91032881D01*
X132916067Y-91089293D01*
X132916065Y-91089294D01*
X132910757Y-91090716D01*
X132905776Y-91093039D01*
X132905775Y-91093039D01*
X132708238Y-91185151D01*
X132708233Y-91185154D01*
X132703251Y-91187477D01*
X132598389Y-91260902D01*
X132520211Y-91315643D01*
X132520208Y-91315645D01*
X132515700Y-91318802D01*
X132353802Y-91480700D01*
X132222477Y-91668251D01*
X132220154Y-91673233D01*
X132220151Y-91673238D01*
X132204195Y-91707457D01*
X132157278Y-91760742D01*
X132089001Y-91780203D01*
X132021041Y-91759661D01*
X131975805Y-91707457D01*
X131959849Y-91673238D01*
X131959846Y-91673233D01*
X131957523Y-91668251D01*
X131826198Y-91480700D01*
X131664300Y-91318802D01*
X131659792Y-91315645D01*
X131659789Y-91315643D01*
X131581611Y-91260902D01*
X131476749Y-91187477D01*
X131471767Y-91185154D01*
X131471762Y-91185151D01*
X131274225Y-91093039D01*
X131274224Y-91093039D01*
X131269243Y-91090716D01*
X131263935Y-91089294D01*
X131263933Y-91089293D01*
X131053402Y-91032881D01*
X131053400Y-91032881D01*
X131048087Y-91031457D01*
X130820000Y-91011502D01*
X130591913Y-91031457D01*
X130586600Y-91032881D01*
X130586598Y-91032881D01*
X130376067Y-91089293D01*
X130376065Y-91089294D01*
X130370757Y-91090716D01*
X130365776Y-91093039D01*
X130365775Y-91093039D01*
X130168238Y-91185151D01*
X130168233Y-91185154D01*
X130163251Y-91187477D01*
X130058389Y-91260902D01*
X129980211Y-91315643D01*
X129980208Y-91315645D01*
X129975700Y-91318802D01*
X129813802Y-91480700D01*
X129810643Y-91485211D01*
X129807108Y-91489424D01*
X129805974Y-91488473D01*
X129755929Y-91528471D01*
X129685310Y-91535776D01*
X129621951Y-91503742D01*
X129585970Y-91442538D01*
X129582918Y-91425483D01*
X129581745Y-91414684D01*
X129530615Y-91278295D01*
X129443261Y-91161739D01*
X129326705Y-91074385D01*
X129190316Y-91023255D01*
X129128134Y-91016500D01*
X127431866Y-91016500D01*
X127369684Y-91023255D01*
X127233295Y-91074385D01*
X127116739Y-91161739D01*
X127029385Y-91278295D01*
X126978255Y-91414684D01*
X126971500Y-91476866D01*
X126971500Y-93973134D01*
X110508500Y-93973134D01*
X110508500Y-91711114D01*
X113250507Y-91711114D01*
X113253460Y-91736631D01*
X113255419Y-91746521D01*
X113320489Y-91976476D01*
X113324003Y-91985927D01*
X113425006Y-92202528D01*
X113429985Y-92211292D01*
X113564314Y-92408951D01*
X113570638Y-92416815D01*
X113734836Y-92590451D01*
X113742343Y-92597210D01*
X113932188Y-92742357D01*
X113940667Y-92747821D01*
X114151283Y-92860752D01*
X114160529Y-92864792D01*
X114386487Y-92942596D01*
X114396268Y-92945107D01*
X114632834Y-92985969D01*
X114640706Y-92986824D01*
X114665185Y-92987936D01*
X114668018Y-92988000D01*
X115265385Y-92988000D01*
X115280624Y-92983525D01*
X115281829Y-92982135D01*
X115283500Y-92974452D01*
X115283500Y-92969885D01*
X115791500Y-92969885D01*
X115795975Y-92985124D01*
X115797365Y-92986329D01*
X115805048Y-92988000D01*
X116357572Y-92988000D01*
X116362604Y-92987798D01*
X116540759Y-92973464D01*
X116550712Y-92971852D01*
X116782800Y-92914846D01*
X116792370Y-92911663D01*
X117012360Y-92818282D01*
X117021299Y-92813608D01*
X117223524Y-92686261D01*
X117231599Y-92680220D01*
X117410868Y-92522173D01*
X117417871Y-92514921D01*
X117569562Y-92330250D01*
X117575318Y-92321967D01*
X117695531Y-92115421D01*
X117699893Y-92106316D01*
X117785534Y-91883215D01*
X117788385Y-91873526D01*
X117822185Y-91711736D01*
X117821062Y-91697675D01*
X117810954Y-91694000D01*
X115809615Y-91694000D01*
X115794376Y-91698475D01*
X115793171Y-91699865D01*
X115791500Y-91707548D01*
X115791500Y-92969885D01*
X115283500Y-92969885D01*
X115283500Y-91712115D01*
X115279025Y-91696876D01*
X115277635Y-91695671D01*
X115269952Y-91694000D01*
X113266642Y-91694000D01*
X113252556Y-91698136D01*
X113250507Y-91711114D01*
X110508500Y-91711114D01*
X110508500Y-91168264D01*
X113252815Y-91168264D01*
X113253938Y-91182325D01*
X113264046Y-91186000D01*
X115265385Y-91186000D01*
X115280624Y-91181525D01*
X115281829Y-91180135D01*
X115283500Y-91172452D01*
X115283500Y-91167885D01*
X115791500Y-91167885D01*
X115795975Y-91183124D01*
X115797365Y-91184329D01*
X115805048Y-91186000D01*
X117808358Y-91186000D01*
X117822444Y-91181864D01*
X117824493Y-91168886D01*
X117821540Y-91143369D01*
X117819581Y-91133479D01*
X117754511Y-90903524D01*
X117750997Y-90894073D01*
X117649994Y-90677472D01*
X117645015Y-90668708D01*
X117510686Y-90471049D01*
X117504362Y-90463185D01*
X117340164Y-90289549D01*
X117332657Y-90282790D01*
X117142812Y-90137643D01*
X117134333Y-90132179D01*
X117126334Y-90127890D01*
X138832093Y-90127890D01*
X138835876Y-90136666D01*
X139687188Y-90987978D01*
X139701132Y-90995592D01*
X139702965Y-90995461D01*
X139709580Y-90991210D01*
X140561080Y-90139710D01*
X140567840Y-90127330D01*
X140562113Y-90119680D01*
X140390958Y-90014795D01*
X140382163Y-90010313D01*
X140172012Y-89923266D01*
X140162627Y-89920217D01*
X139941446Y-89867115D01*
X139931699Y-89865572D01*
X139704930Y-89847725D01*
X139695070Y-89847725D01*
X139468301Y-89865572D01*
X139458554Y-89867115D01*
X139237373Y-89920217D01*
X139227988Y-89923266D01*
X139017837Y-90010313D01*
X139009042Y-90014795D01*
X138841555Y-90117432D01*
X138832093Y-90127890D01*
X117126334Y-90127890D01*
X116923717Y-90019248D01*
X116914471Y-90015208D01*
X116688513Y-89937404D01*
X116678732Y-89934893D01*
X116442166Y-89894031D01*
X116434294Y-89893176D01*
X116409815Y-89892064D01*
X116406982Y-89892000D01*
X115809615Y-89892000D01*
X115794376Y-89896475D01*
X115793171Y-89897865D01*
X115791500Y-89905548D01*
X115791500Y-91167885D01*
X115283500Y-91167885D01*
X115283500Y-89910115D01*
X115279025Y-89894876D01*
X115277635Y-89893671D01*
X115269952Y-89892000D01*
X114717428Y-89892000D01*
X114712396Y-89892202D01*
X114534241Y-89906536D01*
X114524288Y-89908148D01*
X114292200Y-89965154D01*
X114282630Y-89968337D01*
X114062640Y-90061718D01*
X114053701Y-90066392D01*
X113851476Y-90193739D01*
X113843401Y-90199780D01*
X113664132Y-90357827D01*
X113657129Y-90365079D01*
X113505438Y-90549750D01*
X113499682Y-90558033D01*
X113379469Y-90764579D01*
X113375107Y-90773684D01*
X113289466Y-90996785D01*
X113286615Y-91006474D01*
X113252815Y-91168264D01*
X110508500Y-91168264D01*
X110508500Y-88900000D01*
X147989556Y-88900000D01*
X148009312Y-89214015D01*
X148068269Y-89523079D01*
X148165497Y-89822315D01*
X148167184Y-89825901D01*
X148167186Y-89825905D01*
X148297775Y-90103421D01*
X148297779Y-90103428D01*
X148299463Y-90107007D01*
X148301587Y-90110353D01*
X148301587Y-90110354D01*
X148312360Y-90127330D01*
X148468053Y-90372663D01*
X148470578Y-90375715D01*
X148614553Y-90549750D01*
X148668610Y-90615094D01*
X148897970Y-90830478D01*
X148901172Y-90832805D01*
X148901174Y-90832806D01*
X149149307Y-91013085D01*
X149149312Y-91013088D01*
X149152516Y-91015416D01*
X149218851Y-91051884D01*
X149367271Y-91133479D01*
X149428234Y-91166994D01*
X149487942Y-91190634D01*
X149717092Y-91281361D01*
X149717095Y-91281362D01*
X149720775Y-91282819D01*
X149724609Y-91283803D01*
X149724617Y-91283806D01*
X149913074Y-91332193D01*
X150025527Y-91361066D01*
X150029455Y-91361562D01*
X150029459Y-91361563D01*
X150153375Y-91377217D01*
X150337682Y-91400500D01*
X150652318Y-91400500D01*
X150836625Y-91377217D01*
X150960541Y-91361563D01*
X150960545Y-91361562D01*
X150964473Y-91361066D01*
X151076926Y-91332193D01*
X151265383Y-91283806D01*
X151265391Y-91283803D01*
X151269225Y-91282819D01*
X151272905Y-91281362D01*
X151272908Y-91281361D01*
X151502058Y-91190634D01*
X151561766Y-91166994D01*
X151622730Y-91133479D01*
X151771149Y-91051884D01*
X151837484Y-91015416D01*
X151840688Y-91013088D01*
X151840693Y-91013085D01*
X152088826Y-90832806D01*
X152088828Y-90832805D01*
X152092030Y-90830478D01*
X152321390Y-90615094D01*
X152375448Y-90549750D01*
X152519422Y-90375715D01*
X152521947Y-90372663D01*
X152677640Y-90127330D01*
X152688413Y-90110354D01*
X152688413Y-90110353D01*
X152690537Y-90107007D01*
X152692221Y-90103428D01*
X152692225Y-90103421D01*
X152822814Y-89825905D01*
X152822816Y-89825901D01*
X152824503Y-89822315D01*
X152921731Y-89523079D01*
X152980688Y-89214015D01*
X153000444Y-88900000D01*
X152995953Y-88828614D01*
X171218263Y-88828614D01*
X171218416Y-88833002D01*
X171218416Y-88833008D01*
X171223249Y-88971386D01*
X171228222Y-89113811D01*
X171277777Y-89394847D01*
X171365961Y-89666251D01*
X171491060Y-89922741D01*
X171650637Y-90159325D01*
X171653582Y-90162596D01*
X171653583Y-90162597D01*
X171687063Y-90199780D01*
X171841588Y-90371397D01*
X172060195Y-90554831D01*
X172302204Y-90706054D01*
X172562904Y-90822125D01*
X172837220Y-90900784D01*
X172841570Y-90901395D01*
X172841573Y-90901396D01*
X172946003Y-90916072D01*
X173119814Y-90940500D01*
X174853762Y-90940500D01*
X174855947Y-90940347D01*
X174855953Y-90940347D01*
X175062791Y-90925884D01*
X175062796Y-90925883D01*
X175067176Y-90925577D01*
X175346312Y-90866244D01*
X175350441Y-90864741D01*
X175350445Y-90864740D01*
X175610328Y-90770151D01*
X175610332Y-90770149D01*
X175614473Y-90768642D01*
X175618363Y-90766574D01*
X175618369Y-90766571D01*
X175862549Y-90636738D01*
X175862555Y-90636734D01*
X175866441Y-90634668D01*
X175870001Y-90632081D01*
X175870005Y-90632079D01*
X176093748Y-90469520D01*
X176093751Y-90469518D01*
X176097311Y-90466931D01*
X176191768Y-90375715D01*
X176299428Y-90271749D01*
X176299431Y-90271745D01*
X176302590Y-90268695D01*
X176356433Y-90199780D01*
X176460647Y-90066392D01*
X176478282Y-90043820D01*
X176564971Y-89893671D01*
X176618763Y-89800501D01*
X176618766Y-89800496D01*
X176620968Y-89796681D01*
X176622618Y-89792597D01*
X176622621Y-89792591D01*
X176726221Y-89536170D01*
X176727870Y-89532089D01*
X176729175Y-89526855D01*
X176795844Y-89259463D01*
X176795845Y-89259458D01*
X176796908Y-89255194D01*
X176826737Y-88971386D01*
X176826584Y-88966992D01*
X176816932Y-88690586D01*
X176816931Y-88690579D01*
X176816778Y-88686189D01*
X176796699Y-88572314D01*
X176786407Y-88513951D01*
X176767223Y-88405153D01*
X176679039Y-88133749D01*
X176553940Y-87877259D01*
X176394363Y-87640675D01*
X176379316Y-87623963D01*
X176206359Y-87431876D01*
X176203412Y-87428603D01*
X175994346Y-87253175D01*
X175988179Y-87248000D01*
X175988178Y-87247999D01*
X175984805Y-87245169D01*
X175742796Y-87093946D01*
X175482096Y-86977875D01*
X175207780Y-86899216D01*
X175203430Y-86898605D01*
X175203427Y-86898604D01*
X175098997Y-86883928D01*
X174925186Y-86859500D01*
X173191238Y-86859500D01*
X173189053Y-86859653D01*
X173189047Y-86859653D01*
X172982209Y-86874116D01*
X172982204Y-86874117D01*
X172977824Y-86874423D01*
X172698688Y-86933756D01*
X172694559Y-86935259D01*
X172694555Y-86935260D01*
X172434672Y-87029849D01*
X172434668Y-87029851D01*
X172430527Y-87031358D01*
X172426637Y-87033426D01*
X172426631Y-87033429D01*
X172182451Y-87163262D01*
X172182445Y-87163266D01*
X172178559Y-87165332D01*
X172174999Y-87167919D01*
X172174995Y-87167921D01*
X171951252Y-87330480D01*
X171947689Y-87333069D01*
X171944525Y-87336125D01*
X171944522Y-87336127D01*
X171745572Y-87528251D01*
X171745569Y-87528255D01*
X171742410Y-87531305D01*
X171739704Y-87534769D01*
X171739700Y-87534773D01*
X171606193Y-87705654D01*
X171566718Y-87756180D01*
X171509933Y-87854535D01*
X171438832Y-87977685D01*
X171424032Y-88003319D01*
X171422382Y-88007403D01*
X171422379Y-88007409D01*
X171372934Y-88129791D01*
X171317130Y-88267911D01*
X171316065Y-88272180D01*
X171316065Y-88272182D01*
X171254441Y-88519343D01*
X171248092Y-88544806D01*
X171247633Y-88549174D01*
X171247632Y-88549179D01*
X171233687Y-88681860D01*
X171218263Y-88828614D01*
X152995953Y-88828614D01*
X152980688Y-88585985D01*
X152921731Y-88276921D01*
X152824503Y-87977685D01*
X152791793Y-87908172D01*
X152692225Y-87696579D01*
X152692221Y-87696572D01*
X152690537Y-87692993D01*
X152521947Y-87427337D01*
X152377867Y-87253175D01*
X152323915Y-87187958D01*
X152323914Y-87187957D01*
X152321390Y-87184906D01*
X152092030Y-86969522D01*
X152088826Y-86967194D01*
X151840693Y-86786915D01*
X151840688Y-86786912D01*
X151837484Y-86784584D01*
X151668408Y-86691633D01*
X151565228Y-86634909D01*
X151565225Y-86634907D01*
X151561766Y-86633006D01*
X151381508Y-86561637D01*
X151272908Y-86518639D01*
X151272905Y-86518638D01*
X151269225Y-86517181D01*
X151265391Y-86516197D01*
X151265383Y-86516194D01*
X151076926Y-86467807D01*
X150964473Y-86438934D01*
X150960545Y-86438438D01*
X150960541Y-86438437D01*
X150836625Y-86422783D01*
X150652318Y-86399500D01*
X150337682Y-86399500D01*
X150153375Y-86422783D01*
X150029459Y-86438437D01*
X150029455Y-86438438D01*
X150025527Y-86438934D01*
X149913074Y-86467807D01*
X149724617Y-86516194D01*
X149724609Y-86516197D01*
X149720775Y-86517181D01*
X149717095Y-86518638D01*
X149717092Y-86518639D01*
X149608492Y-86561637D01*
X149428234Y-86633006D01*
X149424775Y-86634907D01*
X149424772Y-86634909D01*
X149321592Y-86691633D01*
X149152516Y-86784584D01*
X149149312Y-86786912D01*
X149149307Y-86786915D01*
X148901174Y-86967194D01*
X148897970Y-86969522D01*
X148668610Y-87184906D01*
X148666086Y-87187957D01*
X148666085Y-87187958D01*
X148612133Y-87253175D01*
X148468053Y-87427337D01*
X148299463Y-87692993D01*
X148297779Y-87696572D01*
X148297775Y-87696579D01*
X148198207Y-87908172D01*
X148165497Y-87977685D01*
X148068269Y-88276921D01*
X148009312Y-88585985D01*
X147989556Y-88900000D01*
X110508500Y-88900000D01*
X110508500Y-85519599D01*
X113229000Y-85519599D01*
X113229001Y-87200400D01*
X113239974Y-87306167D01*
X113242158Y-87312713D01*
X113279382Y-87424285D01*
X113295950Y-87473946D01*
X113389021Y-87624349D01*
X113514197Y-87749306D01*
X113589479Y-87795710D01*
X113631720Y-87821748D01*
X113664761Y-87842115D01*
X113703376Y-87854923D01*
X113826110Y-87895632D01*
X113826112Y-87895632D01*
X113832638Y-87897797D01*
X113839474Y-87898497D01*
X113839477Y-87898498D01*
X113882530Y-87902909D01*
X113937099Y-87908500D01*
X115525158Y-87908500D01*
X117137900Y-87908499D01*
X117243667Y-87897526D01*
X117304414Y-87877259D01*
X117404502Y-87843867D01*
X117404504Y-87843866D01*
X117411446Y-87841550D01*
X117561849Y-87748479D01*
X117686806Y-87623303D01*
X117687467Y-87623963D01*
X117740240Y-87586546D01*
X117781207Y-87579700D01*
X127796014Y-87579700D01*
X127864135Y-87599702D01*
X127885110Y-87616605D01*
X128268003Y-87999499D01*
X128635227Y-88366723D01*
X128641080Y-88372989D01*
X128665494Y-88400975D01*
X128679282Y-88416781D01*
X128685493Y-88421146D01*
X128685494Y-88421147D01*
X128731807Y-88453695D01*
X128737099Y-88457626D01*
X128787613Y-88497234D01*
X128794540Y-88500362D01*
X128796535Y-88501570D01*
X128811930Y-88510351D01*
X128813996Y-88511459D01*
X128820216Y-88515830D01*
X128827296Y-88518590D01*
X128827301Y-88518593D01*
X128880030Y-88539151D01*
X128886112Y-88541707D01*
X128944610Y-88568120D01*
X128952078Y-88569504D01*
X128954337Y-88570212D01*
X128971366Y-88575062D01*
X128973630Y-88575643D01*
X128980708Y-88578403D01*
X129044379Y-88586786D01*
X129050854Y-88587812D01*
X129113984Y-88599512D01*
X129121564Y-88599075D01*
X129121565Y-88599075D01*
X129176477Y-88595909D01*
X129183729Y-88595700D01*
X138146970Y-88595700D01*
X138155540Y-88595992D01*
X138205946Y-88599429D01*
X138205950Y-88599429D01*
X138213521Y-88599945D01*
X138220997Y-88598640D01*
X138221000Y-88598640D01*
X138276783Y-88588904D01*
X138283308Y-88587941D01*
X138339467Y-88581145D01*
X138339468Y-88581145D01*
X138347011Y-88580232D01*
X138354119Y-88577546D01*
X138356419Y-88576981D01*
X138373480Y-88572314D01*
X138375734Y-88571634D01*
X138383215Y-88570328D01*
X138442005Y-88544521D01*
X138448102Y-88542033D01*
X138501047Y-88522027D01*
X138501050Y-88522026D01*
X138508149Y-88519343D01*
X138514404Y-88515044D01*
X138516495Y-88513951D01*
X138531957Y-88505345D01*
X138533991Y-88504142D01*
X138540946Y-88501089D01*
X138546971Y-88496466D01*
X138546976Y-88496463D01*
X138591874Y-88462012D01*
X138597209Y-88458136D01*
X138643847Y-88426082D01*
X138643853Y-88426077D01*
X138650112Y-88421775D01*
X138691764Y-88375026D01*
X138696744Y-88369751D01*
X139210721Y-87855774D01*
X139273033Y-87821748D01*
X139329228Y-87822350D01*
X139390299Y-87837012D01*
X139458476Y-87853380D01*
X139458482Y-87853381D01*
X139463289Y-87854535D01*
X139700000Y-87873165D01*
X139936711Y-87854535D01*
X139941518Y-87853381D01*
X139941524Y-87853380D01*
X140139382Y-87805878D01*
X140167594Y-87799105D01*
X140172167Y-87797211D01*
X140382389Y-87710135D01*
X140382393Y-87710133D01*
X140386963Y-87708240D01*
X140411844Y-87692993D01*
X140585202Y-87586759D01*
X140585208Y-87586755D01*
X140589416Y-87584176D01*
X140769969Y-87429969D01*
X140924176Y-87249416D01*
X140926755Y-87245208D01*
X140926759Y-87245202D01*
X141045654Y-87051183D01*
X141048240Y-87046963D01*
X141081282Y-86967194D01*
X141137211Y-86832167D01*
X141137212Y-86832165D01*
X141139105Y-86827594D01*
X141183537Y-86642523D01*
X141193380Y-86601524D01*
X141193381Y-86601518D01*
X141194535Y-86596711D01*
X141213165Y-86360000D01*
X141194535Y-86123289D01*
X141181564Y-86069258D01*
X141140260Y-85897218D01*
X141139105Y-85892406D01*
X141109507Y-85820950D01*
X141050135Y-85677611D01*
X141050133Y-85677607D01*
X141048240Y-85673037D01*
X141045654Y-85668817D01*
X140926759Y-85474798D01*
X140926755Y-85474792D01*
X140924176Y-85470584D01*
X140769969Y-85290031D01*
X140762681Y-85283806D01*
X140711192Y-85239831D01*
X140589416Y-85135824D01*
X140585208Y-85133245D01*
X140585202Y-85133241D01*
X140391183Y-85014346D01*
X140386963Y-85011760D01*
X140382393Y-85009867D01*
X140382389Y-85009865D01*
X140172167Y-84922789D01*
X140172165Y-84922788D01*
X140167594Y-84920895D01*
X140087391Y-84901640D01*
X139941524Y-84866620D01*
X139941518Y-84866619D01*
X139936711Y-84865465D01*
X139700000Y-84846835D01*
X139463289Y-84865465D01*
X139458482Y-84866619D01*
X139458476Y-84866620D01*
X139312609Y-84901640D01*
X139232406Y-84920895D01*
X139227835Y-84922788D01*
X139227833Y-84922789D01*
X139017611Y-85009865D01*
X139017607Y-85009867D01*
X139013037Y-85011760D01*
X139008817Y-85014346D01*
X138814798Y-85133241D01*
X138814792Y-85133245D01*
X138810584Y-85135824D01*
X138688808Y-85239831D01*
X138637320Y-85283806D01*
X138630031Y-85290031D01*
X138475824Y-85470584D01*
X138473245Y-85474792D01*
X138473241Y-85474798D01*
X138354346Y-85668817D01*
X138351760Y-85673037D01*
X138349867Y-85677607D01*
X138349865Y-85677611D01*
X138290493Y-85820950D01*
X138260895Y-85892406D01*
X138259740Y-85897218D01*
X138218437Y-86069258D01*
X138205465Y-86123289D01*
X138186835Y-86360000D01*
X138205465Y-86596711D01*
X138237650Y-86730771D01*
X138234103Y-86801676D01*
X138204226Y-86849278D01*
X137918109Y-87135395D01*
X137855797Y-87169421D01*
X137829014Y-87172300D01*
X129505986Y-87172300D01*
X129437865Y-87152298D01*
X129416891Y-87135395D01*
X129035441Y-86753945D01*
X129001415Y-86691633D01*
X129006480Y-86620818D01*
X129052266Y-86561637D01*
X129119784Y-86514361D01*
X129119790Y-86514356D01*
X129124300Y-86511198D01*
X129286198Y-86349300D01*
X129417523Y-86161749D01*
X129419846Y-86156767D01*
X129419849Y-86156762D01*
X129435805Y-86122543D01*
X129482722Y-86069258D01*
X129550999Y-86049797D01*
X129618959Y-86070339D01*
X129664195Y-86122543D01*
X129680151Y-86156762D01*
X129680154Y-86156767D01*
X129682477Y-86161749D01*
X129813802Y-86349300D01*
X129975700Y-86511198D01*
X129980208Y-86514355D01*
X129980211Y-86514357D01*
X130047734Y-86561637D01*
X130163251Y-86642523D01*
X130168233Y-86644846D01*
X130168238Y-86644849D01*
X130268568Y-86691633D01*
X130370757Y-86739284D01*
X130376065Y-86740706D01*
X130376067Y-86740707D01*
X130586598Y-86797119D01*
X130586600Y-86797119D01*
X130591913Y-86798543D01*
X130820000Y-86818498D01*
X131048087Y-86798543D01*
X131053400Y-86797119D01*
X131053402Y-86797119D01*
X131263933Y-86740707D01*
X131263935Y-86740706D01*
X131269243Y-86739284D01*
X131371432Y-86691633D01*
X131471762Y-86644849D01*
X131471767Y-86644846D01*
X131476749Y-86642523D01*
X131592266Y-86561637D01*
X131659789Y-86514357D01*
X131659792Y-86514355D01*
X131664300Y-86511198D01*
X131826198Y-86349300D01*
X131957523Y-86161749D01*
X131959846Y-86156767D01*
X131959849Y-86156762D01*
X131975805Y-86122543D01*
X132022722Y-86069258D01*
X132090999Y-86049797D01*
X132158959Y-86070339D01*
X132204195Y-86122543D01*
X132220151Y-86156762D01*
X132220154Y-86156767D01*
X132222477Y-86161749D01*
X132353802Y-86349300D01*
X132515700Y-86511198D01*
X132520208Y-86514355D01*
X132520211Y-86514357D01*
X132587734Y-86561637D01*
X132703251Y-86642523D01*
X132708233Y-86644846D01*
X132708238Y-86644849D01*
X132808568Y-86691633D01*
X132910757Y-86739284D01*
X132916065Y-86740706D01*
X132916067Y-86740707D01*
X133126598Y-86797119D01*
X133126600Y-86797119D01*
X133131913Y-86798543D01*
X133360000Y-86818498D01*
X133588087Y-86798543D01*
X133593400Y-86797119D01*
X133593402Y-86797119D01*
X133803933Y-86740707D01*
X133803935Y-86740706D01*
X133809243Y-86739284D01*
X133911432Y-86691633D01*
X134011762Y-86644849D01*
X134011767Y-86644846D01*
X134016749Y-86642523D01*
X134132266Y-86561637D01*
X134199789Y-86514357D01*
X134199792Y-86514355D01*
X134204300Y-86511198D01*
X134366198Y-86349300D01*
X134497523Y-86161749D01*
X134499846Y-86156767D01*
X134499849Y-86156762D01*
X134515805Y-86122543D01*
X134562722Y-86069258D01*
X134630999Y-86049797D01*
X134698959Y-86070339D01*
X134744195Y-86122543D01*
X134760151Y-86156762D01*
X134760154Y-86156767D01*
X134762477Y-86161749D01*
X134893802Y-86349300D01*
X135055700Y-86511198D01*
X135060208Y-86514355D01*
X135060211Y-86514357D01*
X135127734Y-86561637D01*
X135243251Y-86642523D01*
X135248233Y-86644846D01*
X135248238Y-86644849D01*
X135348568Y-86691633D01*
X135450757Y-86739284D01*
X135456065Y-86740706D01*
X135456067Y-86740707D01*
X135666598Y-86797119D01*
X135666600Y-86797119D01*
X135671913Y-86798543D01*
X135900000Y-86818498D01*
X136128087Y-86798543D01*
X136133400Y-86797119D01*
X136133402Y-86797119D01*
X136343933Y-86740707D01*
X136343935Y-86740706D01*
X136349243Y-86739284D01*
X136451432Y-86691633D01*
X136551762Y-86644849D01*
X136551767Y-86644846D01*
X136556749Y-86642523D01*
X136672266Y-86561637D01*
X136739789Y-86514357D01*
X136739792Y-86514355D01*
X136744300Y-86511198D01*
X136906198Y-86349300D01*
X137037523Y-86161749D01*
X137039846Y-86156767D01*
X137039849Y-86156762D01*
X137131961Y-85959225D01*
X137131961Y-85959224D01*
X137134284Y-85954243D01*
X137170045Y-85820784D01*
X137192119Y-85738402D01*
X137192119Y-85738400D01*
X137193543Y-85733087D01*
X137208500Y-85562127D01*
X137208500Y-84768134D01*
X145276500Y-84768134D01*
X145283255Y-84830316D01*
X145334385Y-84966705D01*
X145421739Y-85083261D01*
X145538295Y-85170615D01*
X145674684Y-85221745D01*
X145736866Y-85228500D01*
X147633134Y-85228500D01*
X147695316Y-85221745D01*
X147831705Y-85170615D01*
X147948261Y-85083261D01*
X148035615Y-84966705D01*
X148086745Y-84830316D01*
X148093500Y-84768134D01*
X148093500Y-82903839D01*
X150682173Y-82903839D01*
X150682397Y-82908505D01*
X150682397Y-82908511D01*
X150683305Y-82927409D01*
X150694713Y-83164908D01*
X150745704Y-83421256D01*
X150834026Y-83667252D01*
X150836242Y-83671376D01*
X150954457Y-83891386D01*
X150957737Y-83897491D01*
X150960532Y-83901234D01*
X150960534Y-83901237D01*
X151111330Y-84103177D01*
X151111335Y-84103183D01*
X151114122Y-84106915D01*
X151117431Y-84110195D01*
X151117436Y-84110201D01*
X151269625Y-84261067D01*
X151299743Y-84290923D01*
X151303505Y-84293681D01*
X151303508Y-84293684D01*
X151433571Y-84389050D01*
X151510524Y-84445474D01*
X151514667Y-84447654D01*
X151514669Y-84447655D01*
X151737684Y-84564989D01*
X151737689Y-84564991D01*
X151741834Y-84567172D01*
X151870321Y-84612042D01*
X151980770Y-84650613D01*
X151988590Y-84653344D01*
X151993183Y-84654216D01*
X152240785Y-84701224D01*
X152240788Y-84701224D01*
X152245374Y-84702095D01*
X152375959Y-84707226D01*
X152501875Y-84712174D01*
X152501881Y-84712174D01*
X152506543Y-84712357D01*
X152585977Y-84703657D01*
X152761707Y-84684412D01*
X152761712Y-84684411D01*
X152766360Y-84683902D01*
X152879116Y-84654216D01*
X153014594Y-84618548D01*
X153014596Y-84618547D01*
X153019117Y-84617357D01*
X153024385Y-84615094D01*
X153254972Y-84516025D01*
X153259262Y-84514182D01*
X153319489Y-84476913D01*
X153477547Y-84379104D01*
X153477548Y-84379104D01*
X153481519Y-84376646D01*
X153485082Y-84373629D01*
X153485087Y-84373626D01*
X153677439Y-84210787D01*
X153677440Y-84210786D01*
X153681005Y-84207768D01*
X153713407Y-84170821D01*
X153850257Y-84014774D01*
X153850261Y-84014769D01*
X153853339Y-84011259D01*
X153994733Y-83791437D01*
X154102083Y-83553129D01*
X154140567Y-83416676D01*
X154171760Y-83306076D01*
X154171761Y-83306073D01*
X154173030Y-83301572D01*
X154189832Y-83169496D01*
X154205616Y-83045421D01*
X154205616Y-83045417D01*
X154206014Y-83042291D01*
X154208431Y-82950000D01*
X154205348Y-82908511D01*
X154204716Y-82900000D01*
X162189556Y-82900000D01*
X162209312Y-83214015D01*
X162268269Y-83523079D01*
X162365497Y-83822315D01*
X162367184Y-83825901D01*
X162367186Y-83825905D01*
X162497775Y-84103421D01*
X162497779Y-84103428D01*
X162499463Y-84107007D01*
X162668053Y-84372663D01*
X162868610Y-84615094D01*
X163097970Y-84830478D01*
X163101172Y-84832805D01*
X163101174Y-84832806D01*
X163349307Y-85013085D01*
X163349312Y-85013088D01*
X163352516Y-85015416D01*
X163628234Y-85166994D01*
X163768674Y-85222598D01*
X163917092Y-85281361D01*
X163917095Y-85281362D01*
X163920775Y-85282819D01*
X163924609Y-85283803D01*
X163924617Y-85283806D01*
X164113074Y-85332193D01*
X164225527Y-85361066D01*
X164229455Y-85361562D01*
X164229459Y-85361563D01*
X164353375Y-85377217D01*
X164537682Y-85400500D01*
X164852318Y-85400500D01*
X165036625Y-85377217D01*
X165160541Y-85361563D01*
X165160545Y-85361562D01*
X165164473Y-85361066D01*
X165276926Y-85332193D01*
X165465383Y-85283806D01*
X165465391Y-85283803D01*
X165469225Y-85282819D01*
X165472905Y-85281362D01*
X165472908Y-85281361D01*
X165621326Y-85222598D01*
X165761766Y-85166994D01*
X166037484Y-85015416D01*
X166040688Y-85013088D01*
X166040693Y-85013085D01*
X166288826Y-84832806D01*
X166288828Y-84832805D01*
X166292030Y-84830478D01*
X166521390Y-84615094D01*
X166721947Y-84372663D01*
X166890537Y-84107007D01*
X166892221Y-84103428D01*
X166892225Y-84103421D01*
X167022814Y-83825905D01*
X167022816Y-83825901D01*
X167024503Y-83822315D01*
X167048450Y-83748614D01*
X171218263Y-83748614D01*
X171218416Y-83753002D01*
X171218416Y-83753008D01*
X171223593Y-83901237D01*
X171228222Y-84033811D01*
X171228985Y-84038135D01*
X171228985Y-84038140D01*
X171247077Y-84140742D01*
X171277777Y-84314847D01*
X171365961Y-84586251D01*
X171367889Y-84590204D01*
X171367891Y-84590209D01*
X171399110Y-84654216D01*
X171491060Y-84842741D01*
X171650637Y-85079325D01*
X171653582Y-85082596D01*
X171653583Y-85082597D01*
X171729575Y-85166994D01*
X171841588Y-85291397D01*
X171958526Y-85389520D01*
X172055134Y-85470584D01*
X172060195Y-85474831D01*
X172302204Y-85626054D01*
X172562904Y-85742125D01*
X172837220Y-85820784D01*
X172841570Y-85821395D01*
X172841573Y-85821396D01*
X172946003Y-85836072D01*
X173119814Y-85860500D01*
X174853762Y-85860500D01*
X174855947Y-85860347D01*
X174855953Y-85860347D01*
X175062791Y-85845884D01*
X175062796Y-85845883D01*
X175067176Y-85845577D01*
X175346312Y-85786244D01*
X175350441Y-85784741D01*
X175350445Y-85784740D01*
X175610328Y-85690151D01*
X175610332Y-85690149D01*
X175614473Y-85688642D01*
X175618363Y-85686574D01*
X175618369Y-85686571D01*
X175862549Y-85556738D01*
X175862555Y-85556734D01*
X175866441Y-85554668D01*
X175870001Y-85552081D01*
X175870005Y-85552079D01*
X176093748Y-85389520D01*
X176093751Y-85389518D01*
X176097311Y-85386931D01*
X176100478Y-85383873D01*
X176299428Y-85191749D01*
X176299431Y-85191745D01*
X176302590Y-85188695D01*
X176314254Y-85173767D01*
X176475574Y-84967286D01*
X176478282Y-84963820D01*
X176560299Y-84821762D01*
X176618763Y-84720501D01*
X176618766Y-84720496D01*
X176620968Y-84716681D01*
X176622618Y-84712597D01*
X176622621Y-84712591D01*
X176726221Y-84456170D01*
X176727870Y-84452089D01*
X176730209Y-84442707D01*
X176795844Y-84179463D01*
X176795845Y-84179458D01*
X176796908Y-84175194D01*
X176804085Y-84106915D01*
X176826278Y-83895755D01*
X176826278Y-83895752D01*
X176826737Y-83891386D01*
X176825823Y-83865211D01*
X176816932Y-83610586D01*
X176816931Y-83610579D01*
X176816778Y-83606189D01*
X176801436Y-83519178D01*
X176767985Y-83329476D01*
X176767223Y-83325153D01*
X176679039Y-83053749D01*
X176674978Y-83045421D01*
X176590328Y-82871866D01*
X176553940Y-82797259D01*
X176394363Y-82560675D01*
X176317015Y-82474771D01*
X176206359Y-82351876D01*
X176203412Y-82348603D01*
X175984805Y-82165169D01*
X175742796Y-82013946D01*
X175554189Y-81929973D01*
X175486110Y-81899662D01*
X175486108Y-81899661D01*
X175482096Y-81897875D01*
X175207780Y-81819216D01*
X175203430Y-81818605D01*
X175203427Y-81818604D01*
X175098997Y-81803928D01*
X174925186Y-81779500D01*
X173191238Y-81779500D01*
X173189053Y-81779653D01*
X173189047Y-81779653D01*
X172982209Y-81794116D01*
X172982204Y-81794117D01*
X172977824Y-81794423D01*
X172698688Y-81853756D01*
X172694559Y-81855259D01*
X172694555Y-81855260D01*
X172434672Y-81949849D01*
X172434668Y-81949851D01*
X172430527Y-81951358D01*
X172426637Y-81953426D01*
X172426631Y-81953429D01*
X172182451Y-82083262D01*
X172182445Y-82083266D01*
X172178559Y-82085332D01*
X172174999Y-82087919D01*
X172174995Y-82087921D01*
X171951252Y-82250480D01*
X171947689Y-82253069D01*
X171944525Y-82256125D01*
X171944522Y-82256127D01*
X171745572Y-82448251D01*
X171745569Y-82448255D01*
X171742410Y-82451305D01*
X171739704Y-82454769D01*
X171739700Y-82454773D01*
X171592029Y-82643783D01*
X171566718Y-82676180D01*
X171556430Y-82694000D01*
X171435279Y-82903839D01*
X171424032Y-82923319D01*
X171422382Y-82927403D01*
X171422379Y-82927409D01*
X171372934Y-83049791D01*
X171317130Y-83187911D01*
X171316065Y-83192180D01*
X171316065Y-83192182D01*
X171281834Y-83329476D01*
X171248092Y-83464806D01*
X171247633Y-83469174D01*
X171247632Y-83469179D01*
X171242377Y-83519178D01*
X171218263Y-83748614D01*
X167048450Y-83748614D01*
X167121731Y-83523079D01*
X167180688Y-83214015D01*
X167200444Y-82900000D01*
X167180688Y-82585985D01*
X167121731Y-82276921D01*
X167024503Y-81977685D01*
X167019927Y-81967960D01*
X166892225Y-81696579D01*
X166892221Y-81696572D01*
X166890537Y-81692993D01*
X166721947Y-81427337D01*
X166521390Y-81184906D01*
X166292030Y-80969522D01*
X166288826Y-80967194D01*
X166040693Y-80786915D01*
X166040688Y-80786912D01*
X166037484Y-80784584D01*
X165761766Y-80633006D01*
X165602363Y-80569894D01*
X165472908Y-80518639D01*
X165472905Y-80518638D01*
X165469225Y-80517181D01*
X165465391Y-80516197D01*
X165465383Y-80516194D01*
X165276926Y-80467807D01*
X165164473Y-80438934D01*
X165160545Y-80438438D01*
X165160541Y-80438437D01*
X165036625Y-80422783D01*
X164852318Y-80399500D01*
X164537682Y-80399500D01*
X164353375Y-80422783D01*
X164229459Y-80438437D01*
X164229455Y-80438438D01*
X164225527Y-80438934D01*
X164113074Y-80467807D01*
X163924617Y-80516194D01*
X163924609Y-80516197D01*
X163920775Y-80517181D01*
X163917095Y-80518638D01*
X163917092Y-80518639D01*
X163787637Y-80569894D01*
X163628234Y-80633006D01*
X163352516Y-80784584D01*
X163349312Y-80786912D01*
X163349307Y-80786915D01*
X163101174Y-80967194D01*
X163097970Y-80969522D01*
X162868610Y-81184906D01*
X162668053Y-81427337D01*
X162499463Y-81692993D01*
X162497779Y-81696572D01*
X162497775Y-81696579D01*
X162370073Y-81967960D01*
X162365497Y-81977685D01*
X162268269Y-82276921D01*
X162209312Y-82585985D01*
X162189556Y-82900000D01*
X154204716Y-82900000D01*
X154189407Y-82694000D01*
X154189406Y-82693996D01*
X154189061Y-82689348D01*
X154187332Y-82681703D01*
X154132408Y-82438980D01*
X154131377Y-82434423D01*
X154129684Y-82430069D01*
X154038340Y-82195176D01*
X154038339Y-82195173D01*
X154036647Y-82190823D01*
X153906951Y-81963902D01*
X153745138Y-81758643D01*
X153554763Y-81579557D01*
X153340009Y-81430576D01*
X153333441Y-81427337D01*
X153109781Y-81317040D01*
X153109778Y-81317039D01*
X153105593Y-81314975D01*
X153059449Y-81300204D01*
X152861123Y-81236720D01*
X152856665Y-81235293D01*
X152598693Y-81193279D01*
X152484942Y-81191790D01*
X152342022Y-81189919D01*
X152342019Y-81189919D01*
X152337345Y-81189858D01*
X152078362Y-81225104D01*
X151827433Y-81298243D01*
X151823180Y-81300203D01*
X151823179Y-81300204D01*
X151786659Y-81317040D01*
X151590072Y-81407668D01*
X151554961Y-81430688D01*
X151375404Y-81548410D01*
X151375399Y-81548414D01*
X151371491Y-81550976D01*
X151176494Y-81725018D01*
X151009363Y-81925970D01*
X150873771Y-82149419D01*
X150772697Y-82390455D01*
X150708359Y-82643783D01*
X150682173Y-82903839D01*
X148093500Y-82903839D01*
X148093500Y-82871866D01*
X148086745Y-82809684D01*
X148035615Y-82673295D01*
X147948261Y-82556739D01*
X147831705Y-82469385D01*
X147695316Y-82418255D01*
X147633134Y-82411500D01*
X145736866Y-82411500D01*
X145674684Y-82418255D01*
X145538295Y-82469385D01*
X145421739Y-82556739D01*
X145334385Y-82673295D01*
X145283255Y-82809684D01*
X145276500Y-82871866D01*
X145276500Y-84768134D01*
X137208500Y-84768134D01*
X137208500Y-84647873D01*
X137205935Y-84618548D01*
X137196965Y-84516025D01*
X137193543Y-84476913D01*
X137187985Y-84456170D01*
X137135707Y-84261067D01*
X137135706Y-84261065D01*
X137134284Y-84255757D01*
X137111907Y-84207768D01*
X137039849Y-84053238D01*
X137039846Y-84053233D01*
X137037523Y-84048251D01*
X136964098Y-83943389D01*
X136909357Y-83865211D01*
X136909355Y-83865208D01*
X136906198Y-83860700D01*
X136744300Y-83698802D01*
X136739792Y-83695645D01*
X136739789Y-83695643D01*
X136605853Y-83601860D01*
X136556749Y-83567477D01*
X136551767Y-83565154D01*
X136551762Y-83565151D01*
X136354225Y-83473039D01*
X136354224Y-83473039D01*
X136349243Y-83470716D01*
X136343935Y-83469294D01*
X136343933Y-83469293D01*
X136133402Y-83412881D01*
X136133400Y-83412881D01*
X136128087Y-83411457D01*
X135900000Y-83391502D01*
X135671913Y-83411457D01*
X135666600Y-83412881D01*
X135666598Y-83412881D01*
X135456067Y-83469293D01*
X135456065Y-83469294D01*
X135450757Y-83470716D01*
X135445776Y-83473039D01*
X135445775Y-83473039D01*
X135248238Y-83565151D01*
X135248233Y-83565154D01*
X135243251Y-83567477D01*
X135194147Y-83601860D01*
X135060211Y-83695643D01*
X135060208Y-83695645D01*
X135055700Y-83698802D01*
X134893802Y-83860700D01*
X134890645Y-83865208D01*
X134890643Y-83865211D01*
X134835902Y-83943389D01*
X134762477Y-84048251D01*
X134760154Y-84053233D01*
X134760151Y-84053238D01*
X134744195Y-84087457D01*
X134697278Y-84140742D01*
X134629001Y-84160203D01*
X134561041Y-84139661D01*
X134515805Y-84087457D01*
X134499849Y-84053238D01*
X134499846Y-84053233D01*
X134497523Y-84048251D01*
X134424098Y-83943389D01*
X134369357Y-83865211D01*
X134369355Y-83865208D01*
X134366198Y-83860700D01*
X134204300Y-83698802D01*
X134199792Y-83695645D01*
X134199789Y-83695643D01*
X134065853Y-83601860D01*
X134016749Y-83567477D01*
X134011767Y-83565154D01*
X134011762Y-83565151D01*
X133814225Y-83473039D01*
X133814224Y-83473039D01*
X133809243Y-83470716D01*
X133803935Y-83469294D01*
X133803933Y-83469293D01*
X133593402Y-83412881D01*
X133593400Y-83412881D01*
X133588087Y-83411457D01*
X133360000Y-83391502D01*
X133131913Y-83411457D01*
X133126600Y-83412881D01*
X133126598Y-83412881D01*
X132916067Y-83469293D01*
X132916065Y-83469294D01*
X132910757Y-83470716D01*
X132905776Y-83473039D01*
X132905775Y-83473039D01*
X132708238Y-83565151D01*
X132708233Y-83565154D01*
X132703251Y-83567477D01*
X132654147Y-83601860D01*
X132520211Y-83695643D01*
X132520208Y-83695645D01*
X132515700Y-83698802D01*
X132353802Y-83860700D01*
X132350645Y-83865208D01*
X132350643Y-83865211D01*
X132295902Y-83943389D01*
X132222477Y-84048251D01*
X132220154Y-84053233D01*
X132220151Y-84053238D01*
X132204195Y-84087457D01*
X132157278Y-84140742D01*
X132089001Y-84160203D01*
X132021041Y-84139661D01*
X131975805Y-84087457D01*
X131959849Y-84053238D01*
X131959846Y-84053233D01*
X131957523Y-84048251D01*
X131884098Y-83943389D01*
X131829357Y-83865211D01*
X131829355Y-83865208D01*
X131826198Y-83860700D01*
X131664300Y-83698802D01*
X131659792Y-83695645D01*
X131659789Y-83695643D01*
X131525853Y-83601860D01*
X131476749Y-83567477D01*
X131471767Y-83565154D01*
X131471762Y-83565151D01*
X131274225Y-83473039D01*
X131274224Y-83473039D01*
X131269243Y-83470716D01*
X131263935Y-83469294D01*
X131263933Y-83469293D01*
X131053402Y-83412881D01*
X131053400Y-83412881D01*
X131048087Y-83411457D01*
X130820000Y-83391502D01*
X130591913Y-83411457D01*
X130586600Y-83412881D01*
X130586598Y-83412881D01*
X130376067Y-83469293D01*
X130376065Y-83469294D01*
X130370757Y-83470716D01*
X130365776Y-83473039D01*
X130365775Y-83473039D01*
X130168238Y-83565151D01*
X130168233Y-83565154D01*
X130163251Y-83567477D01*
X130114147Y-83601860D01*
X129980211Y-83695643D01*
X129980208Y-83695645D01*
X129975700Y-83698802D01*
X129813802Y-83860700D01*
X129810645Y-83865208D01*
X129810643Y-83865211D01*
X129755902Y-83943389D01*
X129682477Y-84048251D01*
X129680154Y-84053233D01*
X129680151Y-84053238D01*
X129664195Y-84087457D01*
X129617278Y-84140742D01*
X129549001Y-84160203D01*
X129481041Y-84139661D01*
X129435805Y-84087457D01*
X129419849Y-84053238D01*
X129419846Y-84053233D01*
X129417523Y-84048251D01*
X129344098Y-83943389D01*
X129289357Y-83865211D01*
X129289355Y-83865208D01*
X129286198Y-83860700D01*
X129124300Y-83698802D01*
X129119792Y-83695645D01*
X129119789Y-83695643D01*
X128985853Y-83601860D01*
X128936749Y-83567477D01*
X128931767Y-83565154D01*
X128931762Y-83565151D01*
X128734225Y-83473039D01*
X128734224Y-83473039D01*
X128729243Y-83470716D01*
X128723935Y-83469294D01*
X128723933Y-83469293D01*
X128513402Y-83412881D01*
X128513400Y-83412881D01*
X128508087Y-83411457D01*
X128280000Y-83391502D01*
X128051913Y-83411457D01*
X128046600Y-83412881D01*
X128046598Y-83412881D01*
X127836067Y-83469293D01*
X127836065Y-83469294D01*
X127830757Y-83470716D01*
X127825776Y-83473039D01*
X127825775Y-83473039D01*
X127628238Y-83565151D01*
X127628233Y-83565154D01*
X127623251Y-83567477D01*
X127574147Y-83601860D01*
X127440211Y-83695643D01*
X127440208Y-83695645D01*
X127435700Y-83698802D01*
X127273802Y-83860700D01*
X127270645Y-83865208D01*
X127270643Y-83865211D01*
X127215902Y-83943389D01*
X127142477Y-84048251D01*
X127140154Y-84053233D01*
X127140151Y-84053238D01*
X127068093Y-84207768D01*
X127045716Y-84255757D01*
X127044294Y-84261065D01*
X127044293Y-84261067D01*
X126992015Y-84456170D01*
X126986457Y-84476913D01*
X126983035Y-84516025D01*
X126974066Y-84618548D01*
X126971500Y-84647873D01*
X126971500Y-85562127D01*
X126986457Y-85733087D01*
X126987881Y-85738400D01*
X126987881Y-85738402D01*
X127009956Y-85820784D01*
X127045716Y-85954243D01*
X127048039Y-85959224D01*
X127048039Y-85959225D01*
X127056351Y-85977050D01*
X127067012Y-86047242D01*
X127038032Y-86112055D01*
X126978612Y-86150911D01*
X126942156Y-86156300D01*
X117971999Y-86156300D01*
X117903878Y-86136298D01*
X117857385Y-86082642D01*
X117845999Y-86030300D01*
X117845999Y-85519600D01*
X117835026Y-85413833D01*
X117791316Y-85282819D01*
X117781367Y-85252998D01*
X117781366Y-85252996D01*
X117779050Y-85246054D01*
X117685979Y-85095651D01*
X117560803Y-84970694D01*
X117410239Y-84877885D01*
X117330496Y-84851436D01*
X117248890Y-84824368D01*
X117248888Y-84824368D01*
X117242362Y-84822203D01*
X117235526Y-84821503D01*
X117235523Y-84821502D01*
X117192470Y-84817091D01*
X117137901Y-84811500D01*
X115549842Y-84811500D01*
X113937100Y-84811501D01*
X113831333Y-84822474D01*
X113824786Y-84824658D01*
X113824787Y-84824658D01*
X113670498Y-84876133D01*
X113670496Y-84876134D01*
X113663554Y-84878450D01*
X113513151Y-84971521D01*
X113388194Y-85096697D01*
X113295385Y-85247261D01*
X113239703Y-85415138D01*
X113229000Y-85519599D01*
X110508500Y-85519599D01*
X110508500Y-78740000D01*
X125686502Y-78740000D01*
X125706457Y-78968087D01*
X125765716Y-79189243D01*
X125768039Y-79194224D01*
X125768039Y-79194225D01*
X125860151Y-79391762D01*
X125860154Y-79391767D01*
X125862477Y-79396749D01*
X125993802Y-79584300D01*
X126155700Y-79746198D01*
X126160208Y-79749355D01*
X126160211Y-79749357D01*
X126238389Y-79804098D01*
X126343251Y-79877523D01*
X126348233Y-79879846D01*
X126348238Y-79879849D01*
X126545775Y-79971961D01*
X126550757Y-79974284D01*
X126556065Y-79975706D01*
X126556067Y-79975707D01*
X126766598Y-80032119D01*
X126766600Y-80032119D01*
X126771913Y-80033543D01*
X127000000Y-80053498D01*
X127228087Y-80033543D01*
X127233400Y-80032119D01*
X127233402Y-80032119D01*
X127443933Y-79975707D01*
X127443935Y-79975706D01*
X127449243Y-79974284D01*
X127454225Y-79971961D01*
X127651762Y-79879849D01*
X127651767Y-79879846D01*
X127656749Y-79877523D01*
X127761611Y-79804098D01*
X127839789Y-79749357D01*
X127839792Y-79749355D01*
X127844300Y-79746198D01*
X128006198Y-79584300D01*
X128137523Y-79396749D01*
X128139846Y-79391767D01*
X128139849Y-79391762D01*
X128231961Y-79194225D01*
X128231961Y-79194224D01*
X128234284Y-79189243D01*
X128293543Y-78968087D01*
X128313498Y-78740000D01*
X135846502Y-78740000D01*
X135866457Y-78968087D01*
X135925716Y-79189243D01*
X135928039Y-79194224D01*
X135928039Y-79194225D01*
X136020151Y-79391762D01*
X136020154Y-79391767D01*
X136022477Y-79396749D01*
X136153802Y-79584300D01*
X136315700Y-79746198D01*
X136320208Y-79749355D01*
X136320211Y-79749357D01*
X136398389Y-79804098D01*
X136503251Y-79877523D01*
X136508233Y-79879846D01*
X136508238Y-79879849D01*
X136705775Y-79971961D01*
X136710757Y-79974284D01*
X136716065Y-79975706D01*
X136716067Y-79975707D01*
X136926598Y-80032119D01*
X136926600Y-80032119D01*
X136931913Y-80033543D01*
X137160000Y-80053498D01*
X137388087Y-80033543D01*
X137393400Y-80032119D01*
X137393402Y-80032119D01*
X137603933Y-79975707D01*
X137603935Y-79975706D01*
X137609243Y-79974284D01*
X137614225Y-79971961D01*
X137811762Y-79879849D01*
X137811767Y-79879846D01*
X137816749Y-79877523D01*
X137921611Y-79804098D01*
X137999789Y-79749357D01*
X137999792Y-79749355D01*
X138004300Y-79746198D01*
X138166198Y-79584300D01*
X138297523Y-79396749D01*
X138299846Y-79391767D01*
X138299849Y-79391762D01*
X138391961Y-79194225D01*
X138391961Y-79194224D01*
X138394284Y-79189243D01*
X138453543Y-78968087D01*
X138473498Y-78740000D01*
X138453543Y-78511913D01*
X138394284Y-78290757D01*
X138391961Y-78285775D01*
X138299849Y-78088238D01*
X138299846Y-78088233D01*
X138297523Y-78083251D01*
X138166198Y-77895700D01*
X138004300Y-77733802D01*
X137999792Y-77730645D01*
X137999789Y-77730643D01*
X137921611Y-77675902D01*
X137816749Y-77602477D01*
X137811767Y-77600154D01*
X137811762Y-77600151D01*
X137614225Y-77508039D01*
X137614224Y-77508039D01*
X137609243Y-77505716D01*
X137603935Y-77504294D01*
X137603933Y-77504293D01*
X137393402Y-77447881D01*
X137393400Y-77447881D01*
X137388087Y-77446457D01*
X137160000Y-77426502D01*
X136931913Y-77446457D01*
X136926600Y-77447881D01*
X136926598Y-77447881D01*
X136716067Y-77504293D01*
X136716065Y-77504294D01*
X136710757Y-77505716D01*
X136705776Y-77508039D01*
X136705775Y-77508039D01*
X136508238Y-77600151D01*
X136508233Y-77600154D01*
X136503251Y-77602477D01*
X136398389Y-77675902D01*
X136320211Y-77730643D01*
X136320208Y-77730645D01*
X136315700Y-77733802D01*
X136153802Y-77895700D01*
X136022477Y-78083251D01*
X136020154Y-78088233D01*
X136020151Y-78088238D01*
X135928039Y-78285775D01*
X135925716Y-78290757D01*
X135866457Y-78511913D01*
X135846502Y-78740000D01*
X128313498Y-78740000D01*
X128293543Y-78511913D01*
X128234284Y-78290757D01*
X128231961Y-78285775D01*
X128139849Y-78088238D01*
X128139846Y-78088233D01*
X128137523Y-78083251D01*
X128006198Y-77895700D01*
X127844300Y-77733802D01*
X127839792Y-77730645D01*
X127839789Y-77730643D01*
X127761611Y-77675902D01*
X127656749Y-77602477D01*
X127651767Y-77600154D01*
X127651762Y-77600151D01*
X127454225Y-77508039D01*
X127454224Y-77508039D01*
X127449243Y-77505716D01*
X127443935Y-77504294D01*
X127443933Y-77504293D01*
X127233402Y-77447881D01*
X127233400Y-77447881D01*
X127228087Y-77446457D01*
X127000000Y-77426502D01*
X126771913Y-77446457D01*
X126766600Y-77447881D01*
X126766598Y-77447881D01*
X126556067Y-77504293D01*
X126556065Y-77504294D01*
X126550757Y-77505716D01*
X126545776Y-77508039D01*
X126545775Y-77508039D01*
X126348238Y-77600151D01*
X126348233Y-77600154D01*
X126343251Y-77602477D01*
X126238389Y-77675902D01*
X126160211Y-77730643D01*
X126160208Y-77730645D01*
X126155700Y-77733802D01*
X125993802Y-77895700D01*
X125862477Y-78083251D01*
X125860154Y-78088233D01*
X125860151Y-78088238D01*
X125768039Y-78285775D01*
X125765716Y-78290757D01*
X125706457Y-78511913D01*
X125686502Y-78740000D01*
X110508500Y-78740000D01*
X110508500Y-73660000D01*
X125686502Y-73660000D01*
X125706457Y-73888087D01*
X125765716Y-74109243D01*
X125768039Y-74114224D01*
X125768039Y-74114225D01*
X125860151Y-74311762D01*
X125860154Y-74311767D01*
X125862477Y-74316749D01*
X125993802Y-74504300D01*
X126155700Y-74666198D01*
X126160208Y-74669355D01*
X126160211Y-74669357D01*
X126238389Y-74724098D01*
X126343251Y-74797523D01*
X126348233Y-74799846D01*
X126348238Y-74799849D01*
X126545775Y-74891961D01*
X126550757Y-74894284D01*
X126556065Y-74895706D01*
X126556067Y-74895707D01*
X126766598Y-74952119D01*
X126766600Y-74952119D01*
X126771913Y-74953543D01*
X127000000Y-74973498D01*
X127228087Y-74953543D01*
X127233400Y-74952119D01*
X127233402Y-74952119D01*
X127443933Y-74895707D01*
X127443935Y-74895706D01*
X127449243Y-74894284D01*
X127454225Y-74891961D01*
X127651762Y-74799849D01*
X127651767Y-74799846D01*
X127656749Y-74797523D01*
X127761611Y-74724098D01*
X127839789Y-74669357D01*
X127839792Y-74669355D01*
X127844300Y-74666198D01*
X128006198Y-74504300D01*
X128137523Y-74316749D01*
X128139846Y-74311767D01*
X128139849Y-74311762D01*
X128231961Y-74114225D01*
X128231961Y-74114224D01*
X128234284Y-74109243D01*
X128293543Y-73888087D01*
X128313498Y-73660000D01*
X135846502Y-73660000D01*
X135866457Y-73888087D01*
X135925716Y-74109243D01*
X135928039Y-74114224D01*
X135928039Y-74114225D01*
X136020151Y-74311762D01*
X136020154Y-74311767D01*
X136022477Y-74316749D01*
X136153802Y-74504300D01*
X136315700Y-74666198D01*
X136320208Y-74669355D01*
X136320211Y-74669357D01*
X136398389Y-74724098D01*
X136503251Y-74797523D01*
X136508233Y-74799846D01*
X136508238Y-74799849D01*
X136705775Y-74891961D01*
X136710757Y-74894284D01*
X136716065Y-74895706D01*
X136716067Y-74895707D01*
X136926598Y-74952119D01*
X136926600Y-74952119D01*
X136931913Y-74953543D01*
X137160000Y-74973498D01*
X137388087Y-74953543D01*
X137393400Y-74952119D01*
X137393402Y-74952119D01*
X137603933Y-74895707D01*
X137603935Y-74895706D01*
X137609243Y-74894284D01*
X137614225Y-74891961D01*
X137811762Y-74799849D01*
X137811767Y-74799846D01*
X137816749Y-74797523D01*
X137921611Y-74724098D01*
X137999789Y-74669357D01*
X137999792Y-74669355D01*
X138004300Y-74666198D01*
X138166198Y-74504300D01*
X138297523Y-74316749D01*
X138299846Y-74311767D01*
X138299849Y-74311762D01*
X138391961Y-74114225D01*
X138391961Y-74114224D01*
X138394284Y-74109243D01*
X138453543Y-73888087D01*
X138473498Y-73660000D01*
X138453543Y-73431913D01*
X138394284Y-73210757D01*
X138391961Y-73205775D01*
X138299849Y-73008238D01*
X138299846Y-73008233D01*
X138297523Y-73003251D01*
X138166198Y-72815700D01*
X138004300Y-72653802D01*
X137999792Y-72650645D01*
X137999789Y-72650643D01*
X137921611Y-72595902D01*
X137816749Y-72522477D01*
X137811767Y-72520154D01*
X137811762Y-72520151D01*
X137614225Y-72428039D01*
X137614224Y-72428039D01*
X137609243Y-72425716D01*
X137603935Y-72424294D01*
X137603933Y-72424293D01*
X137393402Y-72367881D01*
X137393400Y-72367881D01*
X137388087Y-72366457D01*
X137160000Y-72346502D01*
X136931913Y-72366457D01*
X136926600Y-72367881D01*
X136926598Y-72367881D01*
X136716067Y-72424293D01*
X136716065Y-72424294D01*
X136710757Y-72425716D01*
X136705776Y-72428039D01*
X136705775Y-72428039D01*
X136508238Y-72520151D01*
X136508233Y-72520154D01*
X136503251Y-72522477D01*
X136398389Y-72595902D01*
X136320211Y-72650643D01*
X136320208Y-72650645D01*
X136315700Y-72653802D01*
X136153802Y-72815700D01*
X136022477Y-73003251D01*
X136020154Y-73008233D01*
X136020151Y-73008238D01*
X135928039Y-73205775D01*
X135925716Y-73210757D01*
X135866457Y-73431913D01*
X135846502Y-73660000D01*
X128313498Y-73660000D01*
X128293543Y-73431913D01*
X128234284Y-73210757D01*
X128231961Y-73205775D01*
X128139849Y-73008238D01*
X128139846Y-73008233D01*
X128137523Y-73003251D01*
X128006198Y-72815700D01*
X127844300Y-72653802D01*
X127839792Y-72650645D01*
X127839789Y-72650643D01*
X127761611Y-72595902D01*
X127656749Y-72522477D01*
X127651767Y-72520154D01*
X127651762Y-72520151D01*
X127454225Y-72428039D01*
X127454224Y-72428039D01*
X127449243Y-72425716D01*
X127443935Y-72424294D01*
X127443933Y-72424293D01*
X127233402Y-72367881D01*
X127233400Y-72367881D01*
X127228087Y-72366457D01*
X127000000Y-72346502D01*
X126771913Y-72366457D01*
X126766600Y-72367881D01*
X126766598Y-72367881D01*
X126556067Y-72424293D01*
X126556065Y-72424294D01*
X126550757Y-72425716D01*
X126545776Y-72428039D01*
X126545775Y-72428039D01*
X126348238Y-72520151D01*
X126348233Y-72520154D01*
X126343251Y-72522477D01*
X126238389Y-72595902D01*
X126160211Y-72650643D01*
X126160208Y-72650645D01*
X126155700Y-72653802D01*
X125993802Y-72815700D01*
X125862477Y-73003251D01*
X125860154Y-73008233D01*
X125860151Y-73008238D01*
X125768039Y-73205775D01*
X125765716Y-73210757D01*
X125706457Y-73431913D01*
X125686502Y-73660000D01*
X110508500Y-73660000D01*
X110508500Y-65053250D01*
X110509065Y-65046485D01*
X117336854Y-65046485D01*
X117349612Y-65208590D01*
X117355108Y-65278417D01*
X117362370Y-65370695D01*
X117427206Y-65689378D01*
X117530398Y-65997784D01*
X117670405Y-66291316D01*
X117845141Y-66565597D01*
X117847584Y-66568560D01*
X117847585Y-66568562D01*
X117997308Y-66750190D01*
X118052001Y-66816538D01*
X118287902Y-67040399D01*
X118549326Y-67233843D01*
X118690851Y-67313914D01*
X118829019Y-67392086D01*
X118829023Y-67392088D01*
X118832376Y-67393985D01*
X119132832Y-67518438D01*
X119236288Y-67547129D01*
X119442500Y-67604317D01*
X119442508Y-67604319D01*
X119446216Y-67605347D01*
X119767856Y-67653416D01*
X119771154Y-67653560D01*
X119882918Y-67658440D01*
X119882922Y-67658440D01*
X119884294Y-67658500D01*
X120082598Y-67658500D01*
X120324605Y-67643698D01*
X120328388Y-67642997D01*
X120328395Y-67642996D01*
X120528459Y-67605916D01*
X120644372Y-67584433D01*
X120853682Y-67518438D01*
X120950860Y-67487798D01*
X120950863Y-67487797D01*
X120954532Y-67486640D01*
X120958029Y-67485046D01*
X120958035Y-67485044D01*
X121246954Y-67353376D01*
X121246958Y-67353374D01*
X121250462Y-67351777D01*
X121527751Y-67181854D01*
X121530755Y-67179464D01*
X121530760Y-67179461D01*
X121655007Y-67080630D01*
X121782264Y-66979405D01*
X121784958Y-66976664D01*
X121784962Y-66976660D01*
X122007513Y-66750190D01*
X122007517Y-66750185D01*
X122010208Y-66747447D01*
X122208185Y-66489439D01*
X122373242Y-66209227D01*
X122502920Y-65910988D01*
X122595285Y-65599169D01*
X122648961Y-65278417D01*
X122659087Y-65046485D01*
X167336854Y-65046485D01*
X167349612Y-65208590D01*
X167355108Y-65278417D01*
X167362370Y-65370695D01*
X167427206Y-65689378D01*
X167530398Y-65997784D01*
X167670405Y-66291316D01*
X167845141Y-66565597D01*
X167847584Y-66568560D01*
X167847585Y-66568562D01*
X167997308Y-66750190D01*
X168052001Y-66816538D01*
X168287902Y-67040399D01*
X168549326Y-67233843D01*
X168690851Y-67313914D01*
X168829019Y-67392086D01*
X168829023Y-67392088D01*
X168832376Y-67393985D01*
X169132832Y-67518438D01*
X169236288Y-67547129D01*
X169442500Y-67604317D01*
X169442508Y-67604319D01*
X169446216Y-67605347D01*
X169767856Y-67653416D01*
X169771154Y-67653560D01*
X169882918Y-67658440D01*
X169882922Y-67658440D01*
X169884294Y-67658500D01*
X170082598Y-67658500D01*
X170324605Y-67643698D01*
X170328388Y-67642997D01*
X170328395Y-67642996D01*
X170528459Y-67605916D01*
X170644372Y-67584433D01*
X170853682Y-67518438D01*
X170950860Y-67487798D01*
X170950863Y-67487797D01*
X170954532Y-67486640D01*
X170958029Y-67485046D01*
X170958035Y-67485044D01*
X171246954Y-67353376D01*
X171246958Y-67353374D01*
X171250462Y-67351777D01*
X171527751Y-67181854D01*
X171530755Y-67179464D01*
X171530760Y-67179461D01*
X171655007Y-67080630D01*
X171782264Y-66979405D01*
X171784958Y-66976664D01*
X171784962Y-66976660D01*
X172007513Y-66750190D01*
X172007517Y-66750185D01*
X172010208Y-66747447D01*
X172208185Y-66489439D01*
X172373242Y-66209227D01*
X172502920Y-65910988D01*
X172595285Y-65599169D01*
X172648961Y-65278417D01*
X172663146Y-64953515D01*
X172650388Y-64791410D01*
X172637932Y-64633140D01*
X172637932Y-64633137D01*
X172637630Y-64629305D01*
X172572794Y-64310622D01*
X172469602Y-64002216D01*
X172329595Y-63708684D01*
X172154859Y-63434403D01*
X172007470Y-63255606D01*
X171950442Y-63186425D01*
X171950438Y-63186420D01*
X171947999Y-63183462D01*
X171712098Y-62959601D01*
X171450674Y-62766157D01*
X171245781Y-62650234D01*
X171170981Y-62607914D01*
X171170977Y-62607912D01*
X171167624Y-62606015D01*
X171054847Y-62559301D01*
X170999317Y-62536300D01*
X170867168Y-62481562D01*
X170763712Y-62452871D01*
X170557500Y-62395683D01*
X170557492Y-62395681D01*
X170553784Y-62394653D01*
X170232144Y-62346584D01*
X170228846Y-62346440D01*
X170117082Y-62341560D01*
X170117078Y-62341560D01*
X170115706Y-62341500D01*
X169917402Y-62341500D01*
X169675395Y-62356302D01*
X169671612Y-62357003D01*
X169671605Y-62357004D01*
X169515511Y-62385935D01*
X169355628Y-62415567D01*
X169236874Y-62453010D01*
X169049140Y-62512202D01*
X169049137Y-62512203D01*
X169045468Y-62513360D01*
X169041971Y-62514954D01*
X169041965Y-62514956D01*
X168753046Y-62646624D01*
X168753042Y-62646626D01*
X168749538Y-62648223D01*
X168746259Y-62650233D01*
X168746256Y-62650234D01*
X168475619Y-62816081D01*
X168472249Y-62818146D01*
X168469245Y-62820536D01*
X168469240Y-62820539D01*
X168409522Y-62868041D01*
X168217736Y-63020595D01*
X168215042Y-63023336D01*
X168215038Y-63023340D01*
X167992487Y-63249810D01*
X167992483Y-63249815D01*
X167989792Y-63252553D01*
X167791815Y-63510561D01*
X167626758Y-63790773D01*
X167497080Y-64089012D01*
X167404715Y-64400831D01*
X167351039Y-64721583D01*
X167336854Y-65046485D01*
X122659087Y-65046485D01*
X122663146Y-64953515D01*
X122650388Y-64791410D01*
X122637932Y-64633140D01*
X122637932Y-64633137D01*
X122637630Y-64629305D01*
X122572794Y-64310622D01*
X122469602Y-64002216D01*
X122329595Y-63708684D01*
X122154859Y-63434403D01*
X122007470Y-63255606D01*
X121950442Y-63186425D01*
X121950438Y-63186420D01*
X121947999Y-63183462D01*
X121712098Y-62959601D01*
X121450674Y-62766157D01*
X121245781Y-62650234D01*
X121170981Y-62607914D01*
X121170977Y-62607912D01*
X121167624Y-62606015D01*
X121054847Y-62559301D01*
X121031557Y-62549654D01*
X138555618Y-62549654D01*
X138562673Y-62559627D01*
X138593679Y-62585551D01*
X138600598Y-62590579D01*
X138825272Y-62731515D01*
X138832807Y-62735556D01*
X139074520Y-62844694D01*
X139082551Y-62847680D01*
X139336832Y-62923002D01*
X139345184Y-62924869D01*
X139607340Y-62964984D01*
X139615874Y-62965700D01*
X139881045Y-62969867D01*
X139889596Y-62969418D01*
X140152883Y-62937557D01*
X140161284Y-62935955D01*
X140417824Y-62868653D01*
X140425926Y-62865926D01*
X140670949Y-62764434D01*
X140678617Y-62760628D01*
X140907598Y-62626822D01*
X140914679Y-62622009D01*
X140994655Y-62559301D01*
X141003125Y-62547442D01*
X140996608Y-62535818D01*
X139792812Y-61332022D01*
X139778868Y-61324408D01*
X139777035Y-61324539D01*
X139770420Y-61328790D01*
X138562910Y-62536300D01*
X138555618Y-62549654D01*
X121031557Y-62549654D01*
X120999317Y-62536300D01*
X120867168Y-62481562D01*
X120763712Y-62452871D01*
X120557500Y-62395683D01*
X120557492Y-62395681D01*
X120553784Y-62394653D01*
X120232144Y-62346584D01*
X120228846Y-62346440D01*
X120117082Y-62341560D01*
X120117078Y-62341560D01*
X120115706Y-62341500D01*
X119917402Y-62341500D01*
X119675395Y-62356302D01*
X119671612Y-62357003D01*
X119671605Y-62357004D01*
X119515511Y-62385935D01*
X119355628Y-62415567D01*
X119236874Y-62453010D01*
X119049140Y-62512202D01*
X119049137Y-62512203D01*
X119045468Y-62513360D01*
X119041971Y-62514954D01*
X119041965Y-62514956D01*
X118753046Y-62646624D01*
X118753042Y-62646626D01*
X118749538Y-62648223D01*
X118746259Y-62650233D01*
X118746256Y-62650234D01*
X118475619Y-62816081D01*
X118472249Y-62818146D01*
X118469245Y-62820536D01*
X118469240Y-62820539D01*
X118409522Y-62868041D01*
X118217736Y-63020595D01*
X118215042Y-63023336D01*
X118215038Y-63023340D01*
X117992487Y-63249810D01*
X117992483Y-63249815D01*
X117989792Y-63252553D01*
X117791815Y-63510561D01*
X117626758Y-63790773D01*
X117497080Y-64089012D01*
X117404715Y-64400831D01*
X117351039Y-64721583D01*
X117336854Y-65046485D01*
X110509065Y-65046485D01*
X110510246Y-65032345D01*
X110512770Y-65017344D01*
X110512770Y-65017341D01*
X110513576Y-65012552D01*
X110513729Y-65000000D01*
X110510995Y-64980912D01*
X110509785Y-64959099D01*
X110509905Y-64955300D01*
X110527105Y-64407982D01*
X110527602Y-64400082D01*
X110582970Y-63814343D01*
X110583962Y-63806490D01*
X110586452Y-63790773D01*
X110676002Y-63225376D01*
X110677485Y-63217608D01*
X110805832Y-62643418D01*
X110807800Y-62635751D01*
X110889055Y-62356067D01*
X110971946Y-62070755D01*
X110974388Y-62063239D01*
X111173690Y-61509656D01*
X111176592Y-61502328D01*
X111410267Y-60962337D01*
X111413623Y-60955205D01*
X111419738Y-60943204D01*
X137767665Y-60943204D01*
X137782932Y-61207969D01*
X137784005Y-61216470D01*
X137835065Y-61476722D01*
X137837276Y-61484974D01*
X137923184Y-61735894D01*
X137926499Y-61743779D01*
X138045664Y-61980713D01*
X138050020Y-61988079D01*
X138179347Y-62176250D01*
X138189601Y-62184594D01*
X138203342Y-62177448D01*
X139407978Y-60972812D01*
X139414356Y-60961132D01*
X140144408Y-60961132D01*
X140144539Y-60962965D01*
X140148790Y-60969580D01*
X141355730Y-62176520D01*
X141367939Y-62183187D01*
X141379439Y-62174497D01*
X141476831Y-62041913D01*
X141481418Y-62034685D01*
X141607962Y-61801621D01*
X141611530Y-61793827D01*
X141705271Y-61545750D01*
X141707748Y-61537544D01*
X141766954Y-61279038D01*
X141768294Y-61270577D01*
X141792031Y-61004616D01*
X141792277Y-60999677D01*
X141792666Y-60962485D01*
X141792523Y-60957519D01*
X141791255Y-60938918D01*
X142766917Y-60938918D01*
X142782682Y-61212320D01*
X142783507Y-61216525D01*
X142783508Y-61216533D01*
X142804698Y-61324539D01*
X142835405Y-61481053D01*
X142836792Y-61485103D01*
X142836793Y-61485108D01*
X142857605Y-61545895D01*
X142924112Y-61740144D01*
X143047160Y-61984799D01*
X143049586Y-61988328D01*
X143049589Y-61988334D01*
X143178741Y-62176250D01*
X143202274Y-62210490D01*
X143386582Y-62413043D01*
X143596675Y-62588707D01*
X143600316Y-62590991D01*
X143825024Y-62731951D01*
X143825028Y-62731953D01*
X143828664Y-62734234D01*
X143904444Y-62768450D01*
X144074345Y-62845164D01*
X144074349Y-62845166D01*
X144078257Y-62846930D01*
X144082377Y-62848150D01*
X144082376Y-62848150D01*
X144336723Y-62923491D01*
X144336727Y-62923492D01*
X144340836Y-62924709D01*
X144345070Y-62925357D01*
X144345075Y-62925358D01*
X144607298Y-62965483D01*
X144607300Y-62965483D01*
X144611540Y-62966132D01*
X144750912Y-62968322D01*
X144881071Y-62970367D01*
X144881077Y-62970367D01*
X144885362Y-62970434D01*
X145157235Y-62937534D01*
X145422127Y-62868041D01*
X145426087Y-62866401D01*
X145426092Y-62866399D01*
X145662560Y-62768450D01*
X145675136Y-62763241D01*
X145874702Y-62646624D01*
X145907879Y-62627237D01*
X145907880Y-62627236D01*
X145911582Y-62625073D01*
X146060720Y-62508134D01*
X147771500Y-62508134D01*
X147778255Y-62570316D01*
X147829385Y-62706705D01*
X147916739Y-62823261D01*
X148033295Y-62910615D01*
X148169684Y-62961745D01*
X148231866Y-62968500D01*
X151328134Y-62968500D01*
X151390316Y-62961745D01*
X151526705Y-62910615D01*
X151643261Y-62823261D01*
X151730615Y-62706705D01*
X151781745Y-62570316D01*
X151788500Y-62508134D01*
X151788500Y-59411866D01*
X151781745Y-59349684D01*
X151730615Y-59213295D01*
X151643261Y-59096739D01*
X151526705Y-59009385D01*
X151390316Y-58958255D01*
X151328134Y-58951500D01*
X148231866Y-58951500D01*
X148169684Y-58958255D01*
X148033295Y-59009385D01*
X147916739Y-59096739D01*
X147829385Y-59213295D01*
X147778255Y-59349684D01*
X147771500Y-59411866D01*
X147771500Y-62508134D01*
X146060720Y-62508134D01*
X146127089Y-62456094D01*
X146165239Y-62416727D01*
X146314686Y-62262509D01*
X146317669Y-62259431D01*
X146320202Y-62255983D01*
X146320206Y-62255978D01*
X146477257Y-62042178D01*
X146479795Y-62038723D01*
X146481841Y-62034955D01*
X146608418Y-61801830D01*
X146608419Y-61801828D01*
X146610468Y-61798054D01*
X146707269Y-61541877D01*
X146768407Y-61274933D01*
X146774384Y-61207969D01*
X146792531Y-61004627D01*
X146792532Y-61004616D01*
X146792751Y-61002161D01*
X146793193Y-60960000D01*
X146791465Y-60934648D01*
X146774859Y-60691055D01*
X146774858Y-60691049D01*
X146774567Y-60686778D01*
X146719032Y-60418612D01*
X146627617Y-60160465D01*
X146502013Y-59917112D01*
X146497664Y-59910923D01*
X146347008Y-59696562D01*
X146344545Y-59693057D01*
X146158125Y-59492445D01*
X146154810Y-59489731D01*
X146154806Y-59489728D01*
X145993304Y-59357540D01*
X145946205Y-59318990D01*
X145712704Y-59175901D01*
X145708768Y-59174173D01*
X145465873Y-59067549D01*
X145465869Y-59067548D01*
X145461945Y-59065825D01*
X145198566Y-58990800D01*
X145194324Y-58990196D01*
X145194318Y-58990195D01*
X144989387Y-58961029D01*
X144927443Y-58952213D01*
X144783589Y-58951460D01*
X144657877Y-58950802D01*
X144657871Y-58950802D01*
X144653591Y-58950780D01*
X144649347Y-58951339D01*
X144649343Y-58951339D01*
X144575741Y-58961029D01*
X144382078Y-58986525D01*
X144377938Y-58987658D01*
X144377936Y-58987658D01*
X144310037Y-59006233D01*
X144117928Y-59058788D01*
X144113980Y-59060472D01*
X143869982Y-59164546D01*
X143869978Y-59164548D01*
X143866030Y-59166232D01*
X143846125Y-59178145D01*
X143634725Y-59304664D01*
X143634721Y-59304667D01*
X143631043Y-59306868D01*
X143417318Y-59478094D01*
X143228808Y-59676742D01*
X143069002Y-59899136D01*
X142940857Y-60141161D01*
X142939385Y-60145184D01*
X142939383Y-60145188D01*
X142932314Y-60164506D01*
X142846743Y-60398337D01*
X142788404Y-60665907D01*
X142766917Y-60938918D01*
X141791255Y-60938918D01*
X141774362Y-60691123D01*
X141773201Y-60682649D01*
X141719419Y-60422944D01*
X141717120Y-60414709D01*
X141628588Y-60164705D01*
X141625191Y-60156854D01*
X141503550Y-59921178D01*
X141499122Y-59913866D01*
X141380031Y-59744417D01*
X141369509Y-59736037D01*
X141356121Y-59743089D01*
X140152022Y-60947188D01*
X140144408Y-60961132D01*
X139414356Y-60961132D01*
X139415592Y-60958868D01*
X139415461Y-60957035D01*
X139411210Y-60950420D01*
X138203814Y-59743024D01*
X138191804Y-59736466D01*
X138180064Y-59745434D01*
X138071935Y-59895911D01*
X138067418Y-59903196D01*
X137943325Y-60137567D01*
X137939839Y-60145395D01*
X137848700Y-60394446D01*
X137846311Y-60402670D01*
X137789812Y-60661795D01*
X137788563Y-60670250D01*
X137767754Y-60934653D01*
X137767665Y-60943204D01*
X111419738Y-60943204D01*
X111680737Y-60430964D01*
X111684550Y-60424028D01*
X111984047Y-59917606D01*
X111988289Y-59910923D01*
X112318996Y-59424302D01*
X112323649Y-59417898D01*
X112350122Y-59383770D01*
X112358864Y-59372500D01*
X138556584Y-59372500D01*
X138562980Y-59383770D01*
X139767188Y-60587978D01*
X139781132Y-60595592D01*
X139782965Y-60595461D01*
X139789580Y-60591210D01*
X140996604Y-59384186D01*
X141003795Y-59371017D01*
X140996473Y-59360780D01*
X140949233Y-59322115D01*
X140942261Y-59317160D01*
X140716122Y-59178582D01*
X140708552Y-59174624D01*
X140465704Y-59068022D01*
X140457644Y-59065120D01*
X140202592Y-58992467D01*
X140194214Y-58990685D01*
X139931656Y-58953318D01*
X139923111Y-58952691D01*
X139657908Y-58951302D01*
X139649374Y-58951839D01*
X139386433Y-58986456D01*
X139378035Y-58988149D01*
X139122238Y-59058127D01*
X139114143Y-59060946D01*
X138870199Y-59164997D01*
X138862577Y-59168881D01*
X138635013Y-59305075D01*
X138627981Y-59309962D01*
X138565053Y-59360377D01*
X138556584Y-59372500D01*
X112358864Y-59372500D01*
X112684243Y-58953024D01*
X112689288Y-58946925D01*
X113078380Y-58505586D01*
X113083799Y-58499816D01*
X113499816Y-58083799D01*
X113505586Y-58078380D01*
X113946925Y-57689288D01*
X113953024Y-57684243D01*
X114417898Y-57323649D01*
X114424302Y-57318996D01*
X114910923Y-56988289D01*
X114917606Y-56984047D01*
X115424028Y-56684550D01*
X115430964Y-56680737D01*
X115516432Y-56637189D01*
X115955205Y-56413623D01*
X115962337Y-56410267D01*
X116502328Y-56176592D01*
X116509656Y-56173690D01*
X117063252Y-55974384D01*
X117070755Y-55971946D01*
X117365108Y-55886429D01*
X117635751Y-55807800D01*
X117643418Y-55805832D01*
X118217608Y-55677485D01*
X118225376Y-55676002D01*
X118806499Y-55583961D01*
X118814334Y-55582971D01*
X119064484Y-55559325D01*
X119400082Y-55527602D01*
X119407982Y-55527105D01*
X119955300Y-55509905D01*
X119978642Y-55511343D01*
X119984850Y-55512310D01*
X119984855Y-55512310D01*
X119993724Y-55513691D01*
X120002626Y-55512527D01*
X120002628Y-55512527D01*
X120017677Y-55510559D01*
X120025286Y-55509564D01*
X120041621Y-55508500D01*
X169950633Y-55508500D01*
X169970018Y-55510000D01*
G37*
%TD.AperFunction*%
%TD*%
M02*
