M48
; DRILL file {KiCad (6.0.5)} date Mon Oct 10 14:26:57 2022
; FORMAT={-:-/ absolute / inch / decimal}
; #@! TF.CreationDate,2022-10-10T14:26:57+02:00
; #@! TF.GenerationSoftware,Kicad,Pcbnew,(6.0.5)
; #@! TF.FileFunction,Plated,1,2,PTH
FMAT,2
INCH
; #@! TA.AperFunction,Plated,PTH,ComponentDrill
T1C0.0276
; #@! TA.AperFunction,Plated,PTH,ComponentDrill
T2C0.0315
; #@! TA.AperFunction,Plated,PTH,ComponentDrill
T3C0.0354
; #@! TA.AperFunction,Plated,PTH,ComponentDrill
T4C0.0394
; #@! TA.AperFunction,Plated,PTH,ComponentDrill
T5C0.0472
; #@! TA.AperFunction,Plated,PTH,ComponentDrill
T6C0.0512
; #@! TA.AperFunction,Plated,PTH,ComponentDrill
T7C0.0551
%
G90
G05
T1
X5.7Y-4.6
X5.7984Y-4.6
T2
X5.0Y-2.9
X5.0Y-3.1
X5.0Y-3.9
X5.0Y-4.1
X5.0504Y-3.3506
X5.0504Y-3.6506
X5.1504Y-3.3506
X5.1504Y-3.6506
X5.2504Y-3.3506
X5.2504Y-3.6506
X5.3504Y-3.3506
X5.3504Y-3.6506
X5.4Y-2.9
X5.4Y-3.1
X5.4Y-3.9
X5.4Y-4.1
X5.8Y-3.93
X5.8Y-4.03
X5.8Y-4.13
T3
X5.775Y-3.3
X5.775Y-3.7
T4
X5.5Y-3.4
X5.5Y-3.5969
X6.0018Y-3.2657
X6.0018Y-3.7382
T5
X5.5031Y-2.4
X5.7Y-2.4
X5.8969Y-2.4
T6
X5.925Y-3.5
X6.4821Y-3.7382
X6.4841Y-3.2638
T7
X4.5487Y-3.4
X4.5487Y-3.6
X6.8513Y-3.3
X6.8513Y-3.5
X6.8513Y-3.7
T0
M30
