%TF.GenerationSoftware,KiCad,Pcbnew,(6.0.5)*%
%TF.CreationDate,2022-10-10T14:26:01+02:00*%
%TF.ProjectId,termostato_kicad6,7465726d-6f73-4746-9174-6f5f6b696361,rev?*%
%TF.SameCoordinates,Original*%
%TF.FileFunction,Copper,L2,Bot*%
%TF.FilePolarity,Positive*%
%FSLAX46Y46*%
G04 Gerber Fmt 4.6, Leading zero omitted, Abs format (unit mm)*
G04 Created by KiCad (PCBNEW (6.0.5)) date 2022-10-10 14:26:01*
%MOMM*%
%LPD*%
G01*
G04 APERTURE LIST*
G04 Aperture macros list*
%AMRoundRect*
0 Rectangle with rounded corners*
0 $1 Rounding radius*
0 $2 $3 $4 $5 $6 $7 $8 $9 X,Y pos of 4 corners*
0 Add a 4 corners polygon primitive as box body*
4,1,4,$2,$3,$4,$5,$6,$7,$8,$9,$2,$3,0*
0 Add four circle primitives for the rounded corners*
1,1,$1+$1,$2,$3*
1,1,$1+$1,$4,$5*
1,1,$1+$1,$6,$7*
1,1,$1+$1,$8,$9*
0 Add four rect primitives between the rounded corners*
20,1,$1+$1,$2,$3,$4,$5,0*
20,1,$1+$1,$4,$5,$6,$7,0*
20,1,$1+$1,$6,$7,$8,$9,0*
20,1,$1+$1,$8,$9,$2,$3,0*%
G04 Aperture macros list end*
%TA.AperFunction,ComponentPad*%
%ADD10RoundRect,0.249999X1.550001X-0.790001X1.550001X0.790001X-1.550001X0.790001X-1.550001X-0.790001X0*%
%TD*%
%TA.AperFunction,ComponentPad*%
%ADD11O,3.600000X2.080000*%
%TD*%
%TA.AperFunction,ComponentPad*%
%ADD12RoundRect,0.249999X-1.550001X0.790001X-1.550001X-0.790001X1.550001X-0.790001X1.550001X0.790001X0*%
%TD*%
%TA.AperFunction,ComponentPad*%
%ADD13R,1.600000X2.400000*%
%TD*%
%TA.AperFunction,ComponentPad*%
%ADD14O,1.600000X2.400000*%
%TD*%
%TA.AperFunction,ComponentPad*%
%ADD15C,1.600000*%
%TD*%
%TA.AperFunction,ComponentPad*%
%ADD16O,1.600000X1.600000*%
%TD*%
%TA.AperFunction,ComponentPad*%
%ADD17C,3.000000*%
%TD*%
%TA.AperFunction,ComponentPad*%
%ADD18C,2.500000*%
%TD*%
%TA.AperFunction,ComponentPad*%
%ADD19R,1.800000X1.800000*%
%TD*%
%TA.AperFunction,ComponentPad*%
%ADD20O,1.800000X1.800000*%
%TD*%
%TA.AperFunction,ComponentPad*%
%ADD21R,3.000000X3.000000*%
%TD*%
%TA.AperFunction,ComponentPad*%
%ADD22C,1.400000*%
%TD*%
%TA.AperFunction,ComponentPad*%
%ADD23C,2.000000*%
%TD*%
%TA.AperFunction,ComponentPad*%
%ADD24R,1.500000X1.500000*%
%TD*%
%TA.AperFunction,ComponentPad*%
%ADD25C,1.500000*%
%TD*%
%TA.AperFunction,Conductor*%
%ADD26C,2.540000*%
%TD*%
%TA.AperFunction,Conductor*%
%ADD27C,0.406400*%
%TD*%
G04 APERTURE END LIST*
D10*
%TO.P,X2,1,Pin_1*%
%TO.N,Net-(K1-Pad4)*%
X174022500Y-93980000D03*
D11*
%TO.P,X2,2,Pin_2*%
%TO.N,Net-(K1-Pad3)*%
X174022500Y-88900000D03*
%TO.P,X2,3,Pin_3*%
%TO.N,Net-(K1-Pad1)*%
X174022500Y-83820000D03*
%TD*%
D12*
%TO.P,X1,1,Pin_1*%
%TO.N,+5V*%
X115537500Y-86360000D03*
D11*
%TO.P,X1,2,Pin_2*%
%TO.N,GND*%
X115537500Y-91440000D03*
%TD*%
D13*
%TO.P,U1,1*%
%TO.N,Vout*%
X128280000Y-92725000D03*
D14*
%TO.P,U1,2,-*%
%TO.N,Net-(R1-Pad1)*%
X130820000Y-92725000D03*
%TO.P,U1,3,+*%
%TO.N,Net-(R2-Pad2)*%
X133360000Y-92725000D03*
%TO.P,U1,4,V-*%
%TO.N,GND*%
X135900000Y-92725000D03*
%TO.P,U1,5,+*%
%TO.N,Net-(R4-Pad2)*%
X135900000Y-85105000D03*
%TO.P,U1,6,-*%
%TO.N,Vref*%
X133360000Y-85105000D03*
%TO.P,U1,7*%
X130820000Y-85105000D03*
%TO.P,U1,8,V+*%
%TO.N,+5V*%
X128280000Y-85105000D03*
%TD*%
D15*
%TO.P,R3,1*%
%TO.N,Net-(R2-Pad2)*%
X137160000Y-73660000D03*
D16*
%TO.P,R3,2*%
%TO.N,Vout*%
X127000000Y-73660000D03*
%TD*%
D15*
%TO.P,R5,1*%
%TO.N,Vout*%
X127000000Y-104140000D03*
D16*
%TO.P,R5,2*%
%TO.N,Net-(Q1-Pad2)*%
X137160000Y-104140000D03*
%TD*%
D17*
%TO.P,K1,1*%
%TO.N,Net-(K1-Pad1)*%
X150495000Y-88900000D03*
D18*
%TO.P,K1,2*%
%TO.N,Net-(D1-Pad2)*%
X152445000Y-94950000D03*
D17*
%TO.P,K1,3*%
%TO.N,Net-(K1-Pad3)*%
X164645000Y-94950000D03*
%TO.P,K1,4*%
%TO.N,Net-(K1-Pad4)*%
X164695000Y-82900000D03*
D18*
%TO.P,K1,5*%
%TO.N,+5V*%
X152445000Y-82950000D03*
%TD*%
D19*
%TO.P,D1,1,K*%
%TO.N,+5V*%
X146685000Y-83820000D03*
D20*
%TO.P,D1,2,A*%
%TO.N,Net-(D1-Pad2)*%
X146685000Y-93980000D03*
%TD*%
D21*
%TO.P,R4,1,1*%
%TO.N,+5V*%
X149780000Y-60960000D03*
D17*
%TO.P,R4,2,2*%
%TO.N,Net-(R4-Pad2)*%
X144780000Y-60960000D03*
%TO.P,R4,3,3*%
%TO.N,GND*%
X139780000Y-60960000D03*
%TD*%
D22*
%TO.P,TH1,1*%
%TO.N,+5V*%
X144780000Y-116840000D03*
%TO.P,TH1,2*%
%TO.N,Net-(R1-Pad1)*%
X147280000Y-116840000D03*
%TD*%
D15*
%TO.P,R2,1*%
%TO.N,Vref*%
X127000000Y-78740000D03*
D16*
%TO.P,R2,2*%
%TO.N,Net-(R2-Pad2)*%
X137160000Y-78740000D03*
%TD*%
D15*
%TO.P,R1,1*%
%TO.N,Net-(R1-Pad1)*%
X127000000Y-99060000D03*
D16*
%TO.P,R1,2*%
%TO.N,GND*%
X137160000Y-99060000D03*
%TD*%
D23*
%TO.P,C1,1*%
%TO.N,+5V*%
X139700000Y-86360000D03*
%TO.P,C1,2*%
%TO.N,GND*%
X139700000Y-91360000D03*
%TD*%
D24*
%TO.P,Q1,1,C*%
%TO.N,Net-(D1-Pad2)*%
X147320000Y-104902000D03*
D25*
%TO.P,Q1,2,B*%
%TO.N,Net-(Q1-Pad2)*%
X147320000Y-102362000D03*
%TO.P,Q1,3,E*%
%TO.N,GND*%
X147320000Y-99822000D03*
%TD*%
D26*
%TO.N,Net-(K1-Pad1)*%
X170815000Y-83820000D02*
X174022500Y-83820000D01*
X150495000Y-88900000D02*
X165735000Y-88900000D01*
X165735000Y-88900000D02*
X170815000Y-83820000D01*
D27*
%TO.N,Net-(D1-Pad2)*%
X152445000Y-97110000D02*
X152445000Y-94950000D01*
X147447000Y-104775000D02*
X152273000Y-104775000D01*
X152346000Y-97282000D02*
X148018500Y-97282000D01*
X148018500Y-97282000D02*
X146685000Y-95948500D01*
X152400000Y-97228000D02*
X152346000Y-97282000D01*
X152273000Y-104775000D02*
X152400000Y-104648000D01*
X152400000Y-97155000D02*
X152445000Y-97110000D01*
X146685000Y-95948500D02*
X146685000Y-93980000D01*
X147320000Y-104902000D02*
X147447000Y-104775000D01*
X152400000Y-104648000D02*
X152400000Y-97228000D01*
D26*
%TO.N,Net-(K1-Pad3)*%
X164645000Y-94950000D02*
X166162000Y-94950000D01*
X172212000Y-88900000D02*
X174022500Y-88900000D01*
X166162000Y-94950000D02*
X172212000Y-88900000D01*
%TO.N,Net-(K1-Pad4)*%
X174022500Y-93980000D02*
X178308000Y-93980000D01*
X165720000Y-82900000D02*
X164695000Y-82900000D01*
X177292000Y-78740000D02*
X169880000Y-78740000D01*
X178729980Y-80177980D02*
X177292000Y-78740000D01*
X178308000Y-93980000D02*
X178729980Y-93558020D01*
X169880000Y-78740000D02*
X165720000Y-82900000D01*
X178729980Y-93558020D02*
X178729980Y-80177980D01*
D27*
%TO.N,+5V*%
X146685000Y-83820000D02*
X146685000Y-80137000D01*
X144780000Y-116840000D02*
X144780000Y-113284000D01*
X146685000Y-80137000D02*
X147447000Y-79375000D01*
X126365000Y-68707000D02*
X120904000Y-74168000D01*
X147447000Y-79375000D02*
X150114000Y-79375000D01*
X150114000Y-79375000D02*
X151765000Y-79375000D01*
X126365000Y-62738000D02*
X126365000Y-68707000D01*
X120904000Y-86360000D02*
X115537500Y-86360000D01*
X131191000Y-57912000D02*
X126365000Y-62738000D01*
X120904000Y-106172000D02*
X120904000Y-86233000D01*
X149860000Y-79121000D02*
X150114000Y-79375000D01*
X149780000Y-58721000D02*
X148971000Y-57912000D01*
X142367000Y-110871000D02*
X125603000Y-110871000D01*
X149780000Y-60960000D02*
X149780000Y-58721000D01*
X149780000Y-60960000D02*
X149860000Y-61040000D01*
X144780000Y-113284000D02*
X142367000Y-110871000D01*
X120904000Y-74168000D02*
X120904000Y-86360000D01*
X152445000Y-80055000D02*
X152445000Y-82950000D01*
X125603000Y-110871000D02*
X120904000Y-106172000D01*
X148971000Y-57912000D02*
X131191000Y-57912000D01*
X151765000Y-79375000D02*
X152445000Y-80055000D01*
X149860000Y-61040000D02*
X149860000Y-79121000D01*
%TO.N,Net-(Q1-Pad2)*%
X141732000Y-104140000D02*
X143510000Y-102362000D01*
X137160000Y-104140000D02*
X141732000Y-104140000D01*
X143510000Y-102362000D02*
X147320000Y-102362000D01*
%TO.N,Net-(R4-Pad2)*%
X135900000Y-82052000D02*
X133858000Y-80010000D01*
X133858000Y-73152000D02*
X144780000Y-62230000D01*
X135900000Y-85105000D02*
X135900000Y-82052000D01*
X144780000Y-62230000D02*
X144780000Y-60960000D01*
X133858000Y-80010000D02*
X133858000Y-73152000D01*
%TO.N,Net-(R1-Pad1)*%
X130820000Y-106436000D02*
X134112000Y-109728000D01*
X130820000Y-99060000D02*
X130820000Y-106436000D01*
X134112000Y-109728000D02*
X144272000Y-109728000D01*
X144272000Y-109728000D02*
X147280000Y-112736000D01*
X147280000Y-112736000D02*
X147280000Y-116840000D01*
X127000000Y-99060000D02*
X130820000Y-99060000D01*
X130820000Y-99060000D02*
X130820000Y-92725000D01*
%TO.N,Vref*%
X130957000Y-81915000D02*
X132715000Y-81915000D01*
X130820000Y-82052000D02*
X130957000Y-81915000D01*
X133360000Y-82560000D02*
X133360000Y-85105000D01*
X129032000Y-78740000D02*
X127000000Y-78740000D01*
X130810000Y-82042000D02*
X130810000Y-80518000D01*
X130810000Y-80518000D02*
X129032000Y-78740000D01*
X132715000Y-81915000D02*
X133360000Y-82560000D01*
X130820000Y-85105000D02*
X130820000Y-82052000D01*
%TO.N,Net-(R2-Pad2)*%
X141732000Y-73660000D02*
X137160000Y-73660000D01*
X133360000Y-100340000D02*
X134620000Y-101600000D01*
X142748000Y-78740000D02*
X142748000Y-74676000D01*
X142748000Y-100076000D02*
X142748000Y-78740000D01*
X133360000Y-92725000D02*
X133360000Y-100340000D01*
X141224000Y-101600000D02*
X142748000Y-100076000D01*
X142748000Y-74676000D02*
X141732000Y-73660000D01*
X134620000Y-101600000D02*
X141224000Y-101600000D01*
X142748000Y-78740000D02*
X137160000Y-78740000D01*
%TO.N,Vout*%
X127000000Y-104140000D02*
X124968000Y-104140000D01*
X124968000Y-104140000D02*
X123952000Y-103124000D01*
X123952000Y-103124000D02*
X123952000Y-92725000D01*
X123952000Y-92725000D02*
X128280000Y-92725000D01*
X125476000Y-73660000D02*
X123952000Y-75184000D01*
X127000000Y-73660000D02*
X125476000Y-73660000D01*
X123952000Y-75184000D02*
X123952000Y-92725000D01*
%TD*%
M02*
